<svg xmlns="http://www.w3.org/2000/svg" xmlns:xlink="http://www.w3.org/1999/xlink" viewBox="0 0 1600 400"><defs><style>.a{fill:none;}.ag,.b{fill:#33a474;}.c{fill:#cccfd4;}.d{clip-path:url(#a);}.e{fill:#bbbfc6;}.f{fill:#abafb8;}.da,.g{fill:#dddfe2;}.h{fill:#28835c;}.ac,.ad,.ae,.af,.ag,.ah,.ai,.aj,.ak,.al,.am,.an,.ao,.ap,.aq,.ar,.as,.at,.au,.av,.aw,.ax,.ay,.az,.ba,.bb,.bc,.bd,.be,.bf,.bg,.bh,.bi,.bj,.bl,.bm,.bn,.bt,.bu,.bv,.bw,.bz,.ca,.cb,.cc,.cd,.ce,.cf,.cg,.cp,.cq,.cr,.cs,.ct,.cv,.cw,.cx,.cy,.cz,.da,.db,.ej,.ek,.el,.em,.en,.eo,.eq,.es,.eu,.ev,.ew,.ex,.ey,.ez,.fa,.fb,.fc,.fd,.fe,.ff,.fg,.fh,.fi,.h,.i,.j,.k,.l,.m,.n,.o,.p,.q,.r{fill-rule:evenodd;}.dl,.i{fill:#2d9368;}.et,.j{fill:#1d2432;opacity:0.1;}.k{fill:#e4ae3a;}.l{fill:#fff7ae;}.dr,.m{fill:#e9be61;}.de,.n{fill:#f4d75c;}.di,.o{fill:#72cbcc;}.p{fill:#ecf4f7;}.dj,.q{fill:#b3889d;}.r{fill:#dbcfe0;}.s{fill:#ab90b8;}.bc,.t{fill:#8e699f;}.ac,.u{fill:#4b5464;}.cy,.v{fill:#9a9fa9;}.db,.w{fill:#86b264;}.x{fill:#709d52;}.ak,.y{fill:#648e43;}.fh,.z{fill:#a0cf7e;}.aa,.ai{fill:#96637c;}.ab,.ay{fill:#734d61;}.ad{fill:#787f8d;}.ae{fill:#309b6e;}.af{fill:#216a4b;}.ah{fill:#267a56;}.aj{fill:#9f80ae;}.al,.ch{fill:#3d4554;}.am{fill:#99c26d;}.an{fill:#5a753d;}.ao{fill:#35785d;}.ap,.eb{fill:#dfbda5;}.aq,.bp{fill:#8b6651;}.ar,.bs{fill:#c3987b;}.as,.bo{fill:#e8cab6;}.at,.ef{fill:#fff;}.au{fill:#446125;}.av,.dk{fill:#70bf9d;}.aw{fill:#47ad82;}.ax,.bx{fill:#232a38;}.az,.dc{fill:#b68b2e;}.ba,.ds{fill:#886822;}.bb{opacity:0.2;}.bd{fill:#f7f5f6;}.be{fill:#185e60;}.bf{fill:#1e7678;}.bg,.dp{fill:#359496;}.bh,.by{fill:#543042;}.bi{fill:#7a7a7a;}.bj{fill:#dddddc;}.bk,.cs{fill:#8f8f8f;}.bl{fill:#785d88;}.bm,.bq{fill:#594165;}.bn{fill:#ececeb;}.br,.bu{fill:#9075a0;}.bt{fill:#734c5f;}.bv{fill:#c4c4c4;}.bw{fill:#a3a3a3;}.bz,.dh{fill:#4fa9aa;}.ca{fill:#ecc675;}.cb{fill:#fbfafb;}.cc{fill:#e7dfea;}.cd,.er{fill:#bf8f00;}.ce,.ep{fill:#e5c82e;}.cf{fill:#ccad14;}.cg{fill:#856400;}.ci{fill:#802d00;}.cj{fill:#a84000;}.ck{fill:#cc4e00;}.cl{fill:#ed8600;}.cm{fill:#ff9b01;}.cn{fill:#ffd557;}.co,.cp{fill:#9e7700;}.cq,.cu{fill:#b58b00;}.cr{fill:#ccae2d;}.ct{fill:#755800;}.cv{fill:#735283;}.cw{fill:#9471a4;}.cx,.dm{fill:#d1a1b8;}.cz{fill:#f9fafa;}.dd,.fg{fill:#e6b64e;}.df,.ff{fill:#cc9c34;}.dg,.eu{fill:#9f7928;}.dn{fill:#6c4d7b;}.do{fill:#88619a;}.dq{fill:#aa822b;}.dt{fill:#d8a537;}.du,.ew{fill:#e5b244;}.dv,.ev{fill:#c29431;}.dw{fill:#165e60;}.dx{fill:#3b88a1;}.dy{fill:#369496;}.dz{fill:#317186;}.ea{fill:#89909b;}.ec{fill:#50a9aa;}.ed,.fc{fill:#94d5d5;}.ee,.em{fill:#404857;}.eg{fill:#68707f;}.eh{fill:#51596a;}.ei,.ek{fill:#5f6878;}.ej{fill:#454d5d;}.el{fill:#b7a0c2;}.en{fill:#846528;}.eo{fill:#755924;}.eq{fill:#9d782c;}.es{fill:#343c4b;}.ex{fill:#734d60;}.ey{fill:#5e436b;}.ez{fill:#815c92;}.fa{fill:#583f64;}.fb{fill:#a0cbd9;}.fd{fill:#947125;}.fe{fill:#7d5f1f;}.fi{fill:#c0db8e;}</style><clipPath id="a"><path class="a" d="M870.11,189.87l328.1-115.82,48.41,8.72-375,176.83L408.52,73.4l45.07-7.82ZM682.36,119.34l179.83,45.19L1051,108.23,1109.15,58l-43.73-7.88L859.66,134.81,594.74,41.09,549,49Z"/></clipPath></defs><polygon class="b" points="1277.57 88.34 1246.62 82.77 1121.09 76.06 1065.42 50.12 1015.25 41.09 800 64.53 594.75 41.09 516.75 69.17 408.51 73.4 322.44 88.34 0 68.25 0 400 1600 400 1600 68.25 1277.57 88.34"/><path class="c" d="M870.11,189.87l328.1-115.82,48.41,8.72-375,176.83L408.52,73.4l45.07-7.82ZM682.36,119.34l179.83,45.19L1051,108.23,1109.15,58l-43.73-7.88L859.66,134.81,594.74,41.09,549,49Z"/><g class="d"><polygon class="e" points="1083.92 53.45 861.59 148.6 577.04 44.16 572.19 45 861.43 150.94 1088.05 54.2 1083.92 53.45"/><polygon class="e" points="429.04 85.45 517.7 67.45 516.36 69.36 431.53 86.79 429.04 85.45"/><polygon class="e" points="537.23 79.7 437.47 100 440.34 101.34 538.19 81.04 537.23 79.7"/><polygon class="e" points="480.6 111.25 548.66 93.68 544.83 92.53 475.23 110.68 480.6 111.25"/><polygon class="e" points="515.34 121.6 573.25 104.17 571.34 102.45 509.02 121.4 515.34 121.6"/><polygon class="e" points="537.91 131.85 594.57 113.28 597.25 114.04 540.02 133.77 537.91 131.85"/><polygon class="e" points="569.81 145.21 627.66 125.11 629.57 126.45 572.68 146.55 569.81 145.21"/><polygon class="e" points="601.11 158.57 660.15 137.13 661.49 139.23 602.83 160.49 601.11 158.57"/><polygon class="e" points="637.38 170.28 685.25 153.43 689.09 155.34 634.7 175.25 637.38 170.28"/><polygon class="e" points="674.53 185.6 728.91 164.53 730.83 166.83 674.15 189.43 674.53 185.6"/><polygon class="e" points="710.77 199.23 752.27 183.15 765.3 182.15 712.3 202.68 710.77 199.23"/><polygon class="e" points="753.17 217 802.96 196.7 798.75 194.02 746.28 217.38 753.17 217"/><polygon class="e" points="788.02 232.96 837.81 209.21 834.68 207.68 781.13 232.57 788.02 232.96"/><polygon class="e" points="865.15 227.59 806.66 256.06 806.28 252.23 869.09 221.98 865.15 227.59"/><polygon class="e" points="865.15 227.59 916.57 248.4 920.15 247.13 863.21 223.13 865.15 227.59"/><polygon class="e" points="1224.42 78.77 1221.01 78.15 868.09 242.75 436.04 68.63 431.76 69.37 868.85 245.95 1224.42 78.77"/><polygon class="e" points="892.45 212.02 950.28 236.91 952.96 234.81 892.64 209.15 892.45 212.02"/><polygon class="e" points="925.94 198.81 978.79 220.25 975.53 221.4 916.36 197.66 925.94 198.81"/><polygon class="e" points="952.38 186.17 999.68 205.7 1002.94 204.55 954.3 184.25 952.38 186.17"/><polygon class="e" points="978.62 171.43 1027.64 192.11 1024.57 193.25 975.55 172.96 978.62 171.43"/><polygon class="e" points="1007.72 160.32 1055.98 179.47 1052.53 181.38 1003.13 161.09 1007.72 160.32"/><polygon class="e" points="1029.17 150.36 1079.89 168.75 1082.4 167.21 1030.01 148.06 1029.17 150.36"/><polygon class="e" points="1049.85 137.34 1106.04 157.64 1110.36 156.11 1052.44 135.43 1049.85 137.34"/><polygon class="e" points="1076.19 126.99 1129.62 143.47 1134.79 141.56 1079.61 125.17 1076.19 126.99"/><polygon class="e" points="1101.34 115.9 1160.17 130.41 1166.62 128.61 1105.46 114.2 1101.34 115.9"/><polygon class="e" points="1129.82 103.4 1188.04 117.59 1184.26 119.6 1123.71 104.33 1129.82 103.4"/><polygon class="e" points="1150.55 95 1208.38 109.55 1210.68 107.25 1152.47 93.47 1150.55 95"/><polygon class="e" points="1232.91 93.3 1165.13 80.66 1162.06 81.81 1232.91 96.36 1232.91 93.3"/><polygon class="e" points="567.04 58.7 622.19 47.21 623.98 48.23 569.98 59.98 567.04 58.7"/><polygon class="e" points="591.17 69.21 648.62 55.43 650.53 56.77 592.7 70.94 591.17 69.21"/><polygon class="e" points="622.11 79.94 677.64 64.81 680.32 65.77 625.17 81.08 622.11 79.94"/><polygon class="e" points="704.6 75.15 706.7 76.49 652.51 94.49 651.36 92.38 704.6 75.15"/><polygon class="e" points="681.51 104.1 734.95 85.96 736.61 87.56 683.37 105.52 681.51 104.1"/><polygon class="e" points="712.57 114.85 765.94 96.47 767.21 98 716.91 116.64 712.57 114.85"/><polygon class="e" points="749.55 125.06 797.81 106.43 800.87 107.45 750.32 127.36 749.55 125.06"/><polygon class="e" points="781.94 138.32 832.49 116.62 834.28 118.4 781.68 141.64 781.94 138.32"/><polygon class="e" points="859.66 134.81 810.62 155.72 810.87 152.4 862.7 130.7 859.66 134.81"/><polygon class="e" points="859.66 134.81 905.34 151.13 909.17 149.6 859.89 132.75 859.66 134.81"/><polygon class="e" points="886.96 118.7 938.79 137.34 935.47 138.36 883.64 119.98 886.96 118.7"/><polygon class="e" points="916.02 108.51 966.6 125.08 962.77 126.36 911.66 109.77 916.02 108.51"/><polygon class="e" points="940.02 97.25 991.34 114.11 988.02 115.13 936.96 98.28 940.02 97.25"/><polygon class="e" points="1009.37 102.98 960.82 89.25 963.82 88.06 1014.43 101.94 1009.37 102.98"/><polygon class="e" points="993.93 79.42 1039.5 90.76 1035.72 92.41 983.43 78.73 993.93 79.42"/><polygon class="e" points="1011.65 68.23 1066.03 80.98 1069.07 79.39 1015.2 66.89 1011.65 68.23"/><polygon class="e" points="1035.86 58.84 1093.63 69.18 1095.88 67.58 1040.16 57.44 1035.86 58.84"/></g><polygon class="f" points="862.19 164.53 549.02 49.02 453.59 65.58 865.15 227.59 1198.21 74.05 1109.15 58 862.19 164.53"/><polygon class="g" points="543.66 68.87 556.04 73.6 549.79 75 536.51 69.89 543.66 68.87"/><polygon class="g" points="661.25 117.49 666.75 115.96 678.87 120.55 674.4 122.47 661.25 117.49"/><polygon class="g" points="832.06 181 818.28 175.89 813.94 177.68 827.21 183.04 832.06 181"/><polygon class="g" points="889.02 181.16 893.3 183.09 881.23 188.75 877 186.81 889.02 181.16"/><polygon class="g" points="934.7 160.55 945.41 155.71 950.53 157.49 939.04 162.34 934.7 160.55"/><polygon class="g" points="1101.13 83.71 1109.81 79.37 1115.94 80.9 1106.23 85.24 1101.13 83.71"/><polygon class="h" points="1052.15 233.02 1058.66 243.96 1063.93 243.23 1066.7 243.96 1073.21 231.18 1062.68 241.11 1052.15 233.02"/><polygon class="i" points="1066.7 243.96 1061.47 230.79 1058.66 243.96 1066.7 243.96"/><polygon class="h" points="1096.03 195.11 1100.72 204.11 1104.74 203.11 1108.77 204.11 1114.99 195.11 1105.03 200.75 1096.03 195.11"/><polygon class="i" points="1100.72 204.11 1106.47 190.51 1108.77 204.11 1100.72 204.11"/><polygon class="h" points="1409.08 135.45 1415.63 147.1 1420.51 144.82 1425.39 147.1 1431.65 132.53 1420.37 143.02 1409.08 135.45"/><polygon class="i" points="1415.63 147.1 1420.37 130.79 1425.39 147.1 1415.63 147.1"/><polygon class="h" points="1481.23 318.72 1477.4 310.07 1483.53 316.45 1490.28 310.58 1486.72 318.72 1484.55 317.72 1481.23 318.72"/><polygon class="i" points="1483.91 307.79 1481.23 318.72 1486.72 318.72 1483.91 307.79"/><polygon class="h" points="986.79 226.96 991.31 234.62 993.41 233.62 997.51 234.62 1000.7 226.96 993.75 232.15 986.79 226.96"/><polygon class="i" points="991.31 234.62 993.17 224.4 997.51 234.62 991.31 234.62"/><polygon class="h" points="1333 99.36 1339.7 110.69 1343.27 109.69 1347.94 110.69 1352.92 98.79 1344.11 106.68 1333 99.36"/><polygon class="i" points="1339.7 110.69 1342.39 96.4 1347.94 110.69 1339.7 110.69"/><polygon class="h" points="1337.1 343 1344.25 356.28 1349.33 354.28 1355.48 356.28 1363.14 341.21 1350.12 350.92 1337.1 343"/><polygon class="i" points="1344.25 356.28 1348.33 338.15 1355.48 356.28 1344.25 356.28"/><polygon class="h" points="1056.15 374.77 1062.57 372.77 1066.21 374.77 1072.15 361.36 1061.43 371.13 1049.36 362.51 1056.15 374.77"/><polygon class="i" points="1066.21 374.77 1058.74 356.96 1056.15 374.77 1066.21 374.77"/><polygon class="h" points="1313.34 308.25 1320.28 317.66 1325 315.66 1328.2 317.66 1335.02 308.25 1323.68 313.95 1313.34 308.25"/><polygon class="i" points="1320.28 317.66 1326.24 302.85 1328.2 317.66 1320.28 317.66"/><polygon class="h" points="717.92 331.94 724.83 340.89 729.06 338.89 732.25 340.89 738.93 328.59 728.43 336.42 717.92 331.94"/><polygon class="i" points="729.53 324.99 724.83 340.89 732.25 340.89 729.53 324.99"/><polygon class="h" points="1204.57 210.83 1208.96 217.38 1211.64 215.92 1213.67 217.38 1217.91 208.38 1211.24 214.1 1204.57 210.83"/><polygon class="i" points="1211.94 205.75 1208.96 217.38 1213.67 217.38 1211.94 205.75"/><polygon class="h" points="539.47 290.79 546.36 301.77 550.83 299.77 555.3 301.77 561.94 289.55 550.7 298.19 539.47 290.79"/><polygon class="i" points="546.36 301.77 550.7 284.71 555.3 301.77 546.36 301.77"/><polygon class="h" points="568.06 315.55 574.45 323.21 577.23 321.21 580.02 323.21 585.8 315.55 577.77 320.4 568.06 315.55"/><polygon class="i" points="574.45 323.21 578.28 310.19 580.02 323.21 574.45 323.21"/><polygon class="h" points="285.76 327.06 292.14 334.72 294.93 332.72 297.71 334.72 303.5 327.06 295.46 331.91 285.76 327.06"/><polygon class="i" points="292.14 334.72 295.98 321.7 297.71 334.72 292.14 334.72"/><polygon class="h" points="397.72 343.38 406.7 355.89 411.62 353.89 416.57 355.89 425.52 341.6 411.62 352.06 397.72 343.38"/><polygon class="i" points="406.7 355.89 410.02 337.77 416.57 355.89 406.7 355.89"/><polygon class="h" points="129.09 321.96 136.48 331.64 139.92 329.64 143.37 331.64 148.99 320.15 139.54 326.83 129.09 321.96"/><polygon class="i" points="143.37 331.64 136.99 315.55 136.48 331.64 143.37 331.64"/><polygon class="h" points="495.04 315.55 501.68 324.99 506.4 322.99 511.13 324.99 517 313 506.02 321.94 495.04 315.55"/><polygon class="i" points="501.68 324.99 508.06 309.17 511.13 324.99 501.68 324.99"/><polygon class="h" points="439.38 198.21 443.6 205.42 446.28 204.42 448.96 205.42 453.75 196.79 446.45 202.61 439.38 198.21"/><polygon class="i" points="446.45 193.95 443.6 205.42 448.96 205.42 446.45 193.95"/><polygon class="h" points="191.15 111.22 197.09 118.78 199.86 117.78 203.22 118.78 208.58 108.39 199.86 116.39 191.15 111.22"/><polygon class="i" points="197.09 118.78 201.49 106.79 203.22 118.78 197.09 118.78"/><polygon class="h" points="897.93 83.02 901.71 90.06 904.25 87.79 907.81 90.06 912.75 82.27 904.9 87.14 897.93 83.02"/><polygon class="i" points="901.71 90.06 906.1 78.6 907.81 90.06 901.71 90.06"/><polygon class="h" points="930.46 66.68 932.56 71.2 934.72 69.2 936.39 71.2 938.98 66.38 934.38 69.49 930.46 66.68"/><polygon class="i" points="936.39 71.2 933.62 64.86 932.56 71.2 936.39 71.2"/><polygon class="h" points="810.68 73.83 813.57 79.87 815.79 78.67 818.02 79.87 821.53 72.82 816.11 77.06 810.68 73.83"/><polygon class="i" points="813.57 79.87 816.11 71.35 818.02 79.87 813.57 79.87"/><polygon class="j" points="108.75 274.73 114.75 271.38 108.11 269.72 99.94 272.02 108.75 274.73"/><polygon class="h" points="106.07 268.06 108.75 274.73 109.32 264.72 106.07 268.06"/><polygon class="k" points="97.26 263.65 106.71 259.22 114.87 264.45 106.07 268.06 97.26 263.65"/><polygon class="l" points="103.96 263.4 106.77 262.38 109.32 263.98 105.43 265.57 103.96 263.4"/><polygon class="j" points="221.75 299.23 227.04 296.46 220.15 294.29 214.15 295.69 221.75 299.23"/><polygon class="h" points="217.85 291.85 221.75 299.23 221.07 286.5 217.85 291.85"/><polygon class="k" points="211.47 285.43 219.13 281.76 226.79 286.67 217.85 291.85 211.47 285.43"/><polygon class="l" points="216.13 285.93 218.87 284.68 221.09 286.8 217.85 288.73 216.13 285.93"/><polygon class="j" points="578.4 358.96 587.47 362.79 594.36 357.94 583.64 353.47 578.4 358.96"/><polygon class="h" points="585.06 352.02 581.63 360.04 581.63 347.21 585.06 352.02"/><polygon class="k" points="576.38 345.38 586.6 340.53 597.06 346.15 585.06 352.02 576.38 345.38"/><polygon class="l" points="583.35 345.49 586.72 343.86 589.29 345.49 585.06 348.75 583.35 345.49"/><polygon class="j" points="484.72 267.44 475.65 271.27 468.76 266.42 479.48 261.95 484.72 267.44"/><polygon class="h" points="478.06 260.5 481.49 268.52 481.49 255.69 478.06 260.5"/><polygon class="m" points="486.74 253.86 476.52 249.01 466.06 254.63 478.06 260.5 486.74 253.86"/><polygon class="l" points="479.77 253.97 476.4 252.34 473.83 253.97 478.06 257.23 479.77 253.97"/><polygon class="j" points="1069.26 283.38 1076.74 284.31 1082.02 281.47 1075.51 279.04 1069.26 283.38"/><polygon class="h" points="1073.21 277.07 1076.74 284.31 1076.28 272.29 1073.21 277.07"/><polygon class="k" points="1065.43 270.77 1075.13 267.5 1081.77 271.57 1073.21 277.07 1065.43 270.77"/><polygon class="l" points="1071.49 271.89 1074.49 270.23 1076.53 271.51 1073.47 273.68 1071.49 271.89"/><polygon class="j" points="1153.57 246.75 1158.74 244.7 1153.13 242.53 1146.11 244.32 1153.57 246.75"/><polygon class="h" points="1150.32 240.75 1153.57 246.75 1154.1 236.31 1150.32 240.75"/><polygon class="k" points="1141.61 235.84 1151.09 229.68 1159.51 234.71 1150.32 240.75 1141.61 235.84"/><polygon class="l" points="1147.26 235.13 1150.45 233.09 1154.02 234.62 1150.06 236.91 1147.26 235.13"/><polygon class="j" points="1123.22 278.53 1134.45 276.62 1126.28 272.66 1120.15 276.11 1123.22 278.53"/><polygon class="h" points="1126.19 273.71 1123.22 278.53 1124.7 268 1126.19 273.71"/><polygon class="n" points="1122.04 265.45 1131.55 263.3 1138.19 268.5 1126.19 273.71 1122.04 265.45"/><polygon class="l" points="1126.54 267.04 1130.11 265.89 1132.79 268.06 1127.82 270.11 1126.54 267.04"/><polygon class="j" points="1222.1 297.71 1230.42 294.78 1220.97 291.58 1215.1 295.03 1222.1 297.71"/><polygon class="h" points="1217.52 290.37 1222.1 297.71 1221.54 285.84 1217.52 290.37"/><polygon class="k" points="1213.5 283.1 1221.54 279.56 1230.69 285.78 1217.52 290.37 1213.5 283.1"/><polygon class="l" points="1217.65 284.05 1221.61 282.78 1223.65 284.95 1219.06 286.86 1217.65 284.05"/><polygon class="j" points="1465.89 281.3 1469.4 279.68 1464.67 278.27 1460.85 279.68 1465.89 281.3"/><polygon class="h" points="1462.82 276.61 1465.89 281.3 1465.03 273.45 1462.82 276.61"/><polygon class="o" points="1459.07 272.38 1463.78 270.29 1469.14 273.33 1462.82 276.61 1459.07 272.38"/><polygon class="p" points="1462.38 272.91 1464.16 272.27 1465.57 273.04 1463.27 274.82 1462.38 272.91"/><polygon class="j" points="1097.44 269.25 1101.27 266.95 1106.37 268.1 1102.16 270.65 1097.44 269.25"/><polygon class="h" points="1099.48 264.84 1102.16 270.05 1101.68 261.17 1099.48 264.84"/><polygon class="o" points="1094.12 260.56 1100.44 257.5 1106.18 260.56 1099.48 264.84 1094.12 260.56"/><polygon class="p" points="1097.82 260.7 1100.12 259.55 1102.41 260.7 1099.61 262.48 1097.82 260.7"/><polygon class="j" points="1501.92 197.75 1506.21 195.18 1511.94 196.47 1507.21 199.33 1501.92 197.75"/><polygon class="h" points="1504.21 192.81 1507.21 198.65 1506.68 188.7 1504.21 192.81"/><polygon class="q" points="1498.2 188.02 1505.28 184.58 1511.72 188.02 1504.21 192.81 1498.2 188.02"/><polygon class="r" points="1502.35 188.17 1504.93 186.88 1507.5 188.17 1504.35 190.17 1502.35 188.17"/><polygon class="j" points="754.32 362.13 758.15 359.83 763.25 360.98 759.04 363.54 754.32 362.13"/><polygon class="h" points="756.36 357.72 759.04 362.93 758.56 354.05 756.36 357.72"/><polygon class="o" points="751 353.44 757.32 350.38 763.06 353.44 756.36 357.72 751 353.44"/><polygon class="p" points="754.7 353.58 757 352.43 759.3 353.58 756.49 355.37 754.7 353.58"/><polygon class="j" points="427.22 177.34 431.05 175.04 436.16 176.19 431.95 178.74 427.22 177.34"/><polygon class="h" points="429.27 172.93 431.95 178.13 431.47 169.25 429.27 172.93"/><polygon class="o" points="423.9 168.65 430.22 165.58 435.97 168.65 429.27 172.93 423.9 168.65"/><polygon class="p" points="427.61 168.78 429.9 167.63 432.2 168.78 429.39 170.57 427.61 168.78"/><polygon class="j" points="1073.21 226.96 1078.19 224.4 1071.68 222.75 1066.32 225.3 1073.21 226.96"/><polygon class="h" points="1069.77 221.82 1073.21 226.96 1072.45 216.92 1069.77 221.82"/><polygon class="o" points="1063.64 216.05 1070.72 212.02 1077.04 215.55 1069.77 221.82 1063.64 216.05"/><polygon class="p" points="1067.98 216.49 1071.55 214.45 1073.34 215.85 1070.4 218.53 1067.98 216.49"/><polygon class="j" points="1131.01 188.47 1134.87 186.75 1130.4 184.83 1126.96 186.87 1131.01 188.47"/><polygon class="h" points="1128.63 185 1131.01 188.47 1130.4 181.74 1128.63 185"/><polygon class="o" points="1124.91 181.68 1129.89 178.47 1134.3 181.68 1128.63 185 1124.91 181.68"/><polygon class="p" points="1128.11 181.51 1129.89 180.36 1131.17 181.89 1129.26 182.91 1128.11 181.51"/><polygon class="j" points="1044.74 321.81 1052.53 325.38 1043.72 327.04 1040.02 324.11 1044.74 321.81"/><polygon class="h" points="1045.89 319.36 1043.12 326.15 1044.17 315.21 1045.89 319.36"/><polygon class="q" points="1041.17 314.93 1048.19 310.46 1054.7 314.93 1045.89 319.36 1041.17 314.93"/><polygon class="r" points="1045.51 314.92 1047.94 313.25 1049.85 315.04 1047.04 316.32 1045.51 314.92"/><polygon class="j" points="1438.93 303.05 1448.76 300.35 1441.07 297.02 1434.61 299.47 1438.93 303.05"/><polygon class="h" points="1442.21 296.55 1438.93 303.05 1440.57 290.56 1442.21 296.55"/><polygon class="q" points="1436.96 288.92 1445.36 285.28 1452.96 292 1442.21 296.55 1436.96 288.92"/><polygon class="r" points="1442.3 289.86 1444.92 288.63 1447.19 291.26 1443.17 292.83 1442.3 289.86"/><polygon class="j" points="1186.93 361.72 1197.9 358.27 1188.83 355.84 1182.32 359.16 1186.93 361.72"/><polygon class="h" points="1191.07 353.67 1186.93 361.72 1188.57 347.93 1191.07 353.67"/><polygon class="o" points="1184.27 347.93 1192.98 343.14 1201.6 347.93 1191.07 353.67 1184.27 347.93"/><polygon class="p" points="1189.98 348.06 1193.05 346.14 1195.98 347.67 1191.64 349.97 1189.98 348.06"/><polygon class="j" points="617.09 336.49 625.89 339.3 631.51 335.34 624.23 332.28 617.09 336.49"/><polygon class="h" points="621.51 328.72 624.46 337.87 625.99 323.66 621.51 328.72"/><polygon class="o" points="615.89 321.59 623.81 316.21 631.89 321.59 621.51 328.72 615.89 321.59"/><polygon class="p" points="620.4 322.45 624.23 319.89 626.28 321.68 622.45 324.49 620.4 322.45"/><polygon class="j" points="642.89 347.34 650.66 349.38 655.89 345.94 647.34 343.25 642.89 347.34"/><polygon class="h" points="648.56 341.85 645.38 347.46 646.67 337.54 648.56 341.85"/><polygon class="q" points="643.47 336.13 651.38 333.89 657.98 337.92 648.56 341.85 643.47 336.13"/><polygon class="r" points="647.6 337.13 650.79 336.36 652.83 337.51 649.25 338.92 647.6 337.13"/><polygon class="j" points="330.96 320.15 339.04 316.57 330.23 314.28 323.08 316.7 330.96 320.15"/><polygon class="h" points="328.17 312.01 330.96 320.15 332.21 307.8 328.17 312.01"/><polygon class="q" points="319.76 305.6 329.72 302.28 339.93 307.13 328.17 312.01 319.76 305.6"/><polygon class="r" points="326.27 306.49 329.21 304.7 331.89 306.62 328.19 308.15 326.27 306.49"/><polygon class="j" points="194.52 289 203.91 285.33 196.63 282.65 190.63 285.97 194.52 289"/><polygon class="h" points="198.03 281.52 194.52 289 195 277.13 198.03 281.52"/><polygon class="q" points="190.11 276.43 198.8 271.33 206.33 275.76 198.03 281.52 190.11 276.43"/><polygon class="r" points="195.35 276.14 198.67 274.1 201.35 275.63 198.03 277.67 195.35 276.14"/><polygon class="j" points="182.21 194.9 191.12 192.44 183.97 190.4 177.84 191.8 182.21 194.9"/><polygon class="h" points="184.99 189.07 182.21 194.9 182.78 185.03 184.99 189.07"/><polygon class="o" points="176.82 183.78 185.75 180.11 193.16 184.81 184.99 189.07 176.82 183.78"/><polygon class="p" points="182.43 184.01 185.37 182.48 188.43 184.4 184.35 185.8 182.43 184.01"/><polygon class="s" points="761.37 70.96 790.45 81.3 784.83 90.33 761.09 81.3 761.37 70.96"/><polygon class="t" points="737.47 78.87 761.37 70.96 761.95 78.46 759.81 86.66 741.74 87.81 737.47 78.87"/><polygon class="u" points="743.34 83.6 761.3 76.96 785.94 86.47 783.3 90.87 746.28 88.57 743.34 83.6"/><polygon class="v" points="764.79 46.96 767.47 29.09 766.13 29.09 761.6 50.53 764.79 46.96"/><polygon class="v" points="761.21 85.38 763.13 84.75 764.28 49.02 763.04 48.72 761.6 50.53 760.45 60.62 761.21 85.38"/><polygon class="c" points="758.02 48.62 759.81 84.87 761.21 85.38 761.6 50.53 759.81 48.3 758.02 48.62"/><polygon class="c" points="761.6 50.53 773.72 33.17 775.51 34.19 764.28 49.02 761.6 50.53"/><polygon class="v" points="761.6 50.53 758.02 48.62 752.66 33.81 754.45 33.17 761.6 50.53"/><polygon class="w" points="730.55 34.55 748.25 41.85 766.93 36.71 778.96 41.09 794.79 36.11 790.89 17.21 780.65 15.97 775 10.96 771 7.79 768.4 1.28 741.74 9.77 730.55 34.55"/><polygon class="x" points="730.55 34.55 748.57 33.17 759.17 34.22 769 26.02 794.79 36.11 778.96 44.53 765.94 39.28 759.46 38.72 747.68 46.06 730.55 34.55"/><polygon class="x" points="775 10.96 756.23 18.41 768.4 1.28 775 10.96"/><polygon class="y" points="748.57 33.17 747.68 46.06 765.94 39.28 769 26.02 748.57 33.17"/><polygon class="z" points="769 26.02 748.57 33.17 741.74 9.77 769 26.02"/><polygon class="z" points="790.89 17.21 769 26.02 775 10.96 790.89 17.21"/><polygon class="s" points="739.89 81.3 765.45 90.87 769 93.59 766.32 101.79 737.97 91.76 737.68 84.2 739.89 81.3"/><polygon class="t" points="767.48 90.33 787.8 84.87 789.95 86.04 789.04 94.64 766.32 101.79 765.7 93.97 767.48 90.33"/><polygon class="aa" points="737.47 78.87 765.32 89.21 767.48 91.2 765.7 93.97 737.68 84.2 737.47 78.87"/><polygon class="ab" points="765.32 89.21 790.45 81.3 789.95 86.04 765.7 93.97 765.32 89.21"/><polygon class="s" points="855.5 107.49 855.49 97.24 884.91 108.06 882.36 119.04 855.5 107.49"/><polygon class="t" points="855.49 97.24 822.75 107.49 836.79 116.23 855.5 107.49 855.49 97.24"/><polygon class="u" points="833.25 112.62 855.65 103.71 883.62 113.62 882.62 123.3 856.89 127.98 833.25 117.89 833.25 112.62"/><polygon class="v" points="854.09 75.54 842.83 57.72 840.81 59.23 855.49 81.57 854.09 75.54"/><polygon class="v" points="856.89 73.02 853.7 53.36 852.04 54.26 855.27 77.36 856.89 73.02"/><polygon class="c" points="856.89 73.02 874.51 59.23 874.89 60.77 859.32 74.81 858.04 75.54 856.89 73.02"/><polygon class="v" points="856.89 73.02 859.32 74.81 857.4 112.85 855.23 114.13 854.47 97.15 856.89 73.02"/><polygon class="c" points="854.09 75.54 852.94 112.6 855.23 114.13 856.89 73.02 854.09 75.54"/><polygon class="w" points="833.15 60.83 846.21 63.08 856.89 60.45 873.36 65.36 891.36 54.58 888.55 33.89 871.83 30.17 868.32 15.98 845.28 21.69 846.96 30.74 840.17 36.77 827.17 45.99 833.15 60.83"/><polygon class="x" points="823.45 44.74 837.36 45.51 846.36 52.41 868.96 47.04 876.81 57.42 887.23 56.52 880.77 61.03 874.13 70.21 855.42 63.95 852.04 63.06 847.36 69.21 832 63.19 823.45 44.74"/><polygon class="x" points="845.28 21.69 868.96 47.04 840.17 36.77 845.28 21.69"/><polygon class="z" points="888.55 33.89 856.89 34.13 868.32 15.98 888.55 33.89"/><polygon class="z" points="840.17 36.77 846.36 52.41 823.45 44.74 840.17 36.77"/><polygon class="s" points="825.9 110.64 865.89 123.04 859.66 134.81 821.53 121.32 822.33 112.2 825.9 110.64"/><polygon class="t" points="863.21 120.62 882.75 110.64 884.6 113.94 884.01 124.79 859.66 134.81 860.41 124.82 863.21 120.62"/><polygon class="aa" points="822.75 107.49 860.79 119.81 862.32 122.15 860.41 124.82 822.33 112.2 822.75 107.49"/><polygon class="ab" points="860.79 119.81 884.91 108.06 884.6 113.94 860.41 124.82 860.79 119.81"/><polygon class="y" points="846.36 52.41 847.36 69.21 855.42 63.95 868.96 47.04 846.36 52.41"/><polygon class="y" points="876.81 57.42 874.13 70.21 891.36 54.58 876.81 57.42"/><polygon class="j" points="600.27 139.37 589.89 141.17 606.61 153.04 638.38 150.17 625.47 141.81 613.8 136.28 606.61 134.08 600.27 139.37"/><polygon class="ac" points="600.23 133.13 598.86 138.03 601.77 142.72 610.6 141.28 607.41 134.2 600.23 133.13"/><polygon class="ad" points="598.86 138.03 598.86 142.96 604.8 145.62 614.36 145.62 613.74 139.45 606.28 139.47 602.21 141.89 598.86 138.03"/><polygon class="ae" points="605.12 124.47 602.95 128.31 613.24 137.11 617.28 131.06 605.12 124.47"/><polygon class="af" points="600.23 133.13 602.95 128.31 612.38 132.89 615.08 134.26 615.72 136.12 614.12 138.17 600.23 133.13"/><polygon class="ag" points="624.21 99.22 622.89 125.82 608.96 122.84 608.02 107.31 624.21 99.22"/><polygon class="i" points="619.55 108.72 619.52 125.38 617.23 123.71 616.16 106.92 619.55 108.72"/><polygon class="ah" points="619.55 108.72 612.83 116.03 610.6 110.89 614.38 101.73 619.55 108.72"/><polygon class="ai" points="634.83 20.25 633.86 13.98 628.84 19.76 634.83 20.25"/><polygon class="aj" points="636.85 77.74 639.74 67.75 633.63 63.62 631.81 50.31 630.18 52.87 632.13 64.47 637.95 68.63 634.61 79.61 636.85 77.74"/><polygon class="aj" points="630.18 98.27 630.21 101.56 631.89 101.78 632.82 97.76 630.18 98.27"/><polygon class="ak" points="640.24 89.78 642.04 93.49 634.73 98.68 628.14 90.93 640.24 89.78"/><polygon class="ak" points="617.12 66.99 624.17 83.54 625.69 96.22 619.55 108.72 614.72 103.96 610.6 110.89 599.41 99.4 592.45 99.39 591.67 86.2 598.23 64.47 617.12 66.99"/><polygon class="ac" points="612.22 81.67 609.02 97.6 614.18 100.42 618.58 96.28 612.22 81.67"/><polygon class="al" points="618.58 96.28 609.02 97.6 614.72 103.96 618.58 96.28"/><polygon class="al" points="616.25 75.57 612.22 81.67 606.69 76.35 611.62 74.68 616.25 75.57"/><polygon class="i" points="620.32 65.78 626.78 67.98 628.23 77.35 624.17 83.54 620.32 65.78"/><polygon class="am" points="626.78 67.98 635.17 81.11 633.33 82.73 628.37 86.45 624.17 83.54 626.78 67.98"/><polygon class="am" points="611.62 74.68 605.58 67.06 598.23 64.47 599.78 82.95 611.62 74.68"/><polygon class="am" points="620.32 65.78 612.66 68.68 611.62 74.68 624.17 83.54 620.32 65.78"/><polygon class="an" points="617.89 59.23 613.44 64.09 614.62 71.7 620.32 65.78 617.89 59.23"/><polygon class="an" points="598.76 54.64 598.23 64.47 605.13 69.73 603.52 62.08 598.76 54.64"/><polygon class="ao" points="587.42 58.74 598.76 54.64 598.87 51.17 596.27 47.76 592.06 51.45 587.42 58.74"/><polygon class="i" points="633.65 28.58 630.36 39.67 630.8 52.87 633.67 50.05 636.04 47.53 638.82 45.94 636.31 30.71 635.64 28.71 633.65 28.58"/><polygon class="ap" points="633.65 28.58 632.67 36.94 634.47 41.19 630.8 52.87 630.04 59.39 617.89 59.23 613.29 69.56 611.62 74.68 607.83 66.76 596.27 47.76 609.48 31.38 624.45 21.21 633.65 28.58"/><polygon class="aq" points="621.57 23.16 633.73 28.64 628.9 23.21 624.25 19.94 621.7 21.11 621.57 23.16"/><polygon class="ar" points="621.82 44.11 618.36 35.22 615.25 30.98 618.16 29.43 621.38 29.87 621.97 32.62 621.82 44.11"/><polygon class="ar" points="624.66 32.69 625.83 30.13 628.49 30.04 631.46 31.93 624.47 40.36 624.66 32.69"/><polygon class="aq" points="624.37 44.2 622.99 45.94 621.82 44.11 624.37 44.2"/><polygon class="ar" points="609.48 31.38 606.93 41.71 608.58 47.16 607.92 58.68 613.35 61.97 616.25 65.46 614.62 71.7 611.62 74.68 605.13 69.73 598.76 54.64 598.87 51.17 596.27 47.76 609.48 31.38"/><polygon class="as" points="624.66 32.69 624.37 44.2 621.82 44.11 621.97 32.62 624.66 32.69"/><polygon class="aq" points="609.48 31.38 605.28 41.48 600.26 45.91 606.44 47.3 598.76 54.64 596.27 47.76 598.96 41.1 609.48 31.38"/><polygon class="i" points="625.83 30.13 629.27 28.97 631.46 31.93 625.83 30.13"/><polygon class="i" points="621.38 29.87 618.5 28.58 615.25 30.98 621.38 29.87"/><polygon class="ak" points="629.58 49.54 622.59 55.49 614.22 49.22 629.58 49.54"/><polygon class="at" points="627.67 49.97 622.87 50.89 616.21 49.65 620.93 52.83 623.96 52.87 627.67 49.97"/><polygon class="au" points="629.58 49.54 622.92 48.45 614.22 49.22 622.9 51.12 629.58 49.54"/><polygon class="aq" points="617.89 59.23 603.51 58.44 616.25 65.46 617.89 59.23"/><polygon class="i" points="609.48 31.38 592.65 40.27 581.84 50.15 587.42 58.74 609.48 31.38"/><polygon class="i" points="607.91 28.29 594.93 16.64 578.65 36.63 607.91 28.29"/><polygon class="i" points="578.65 36.63 571.95 45.23 581.84 50.15 581.34 42.02 578.65 36.63"/><polygon class="av" points="624.45 21.21 624.03 18.51 619.56 12.99 594.93 16.64 604.69 27.86 624.45 21.21"/><polygon class="aw" points="624.45 21.21 636.31 30.71 640.8 23.09 619.56 12.99 624.45 21.21"/><polygon class="aw" points="624.45 21.21 581.84 50.15 578.65 36.63 624.45 21.21"/><path class="ax" d="M630.1,36.55a1.61,1.61,0,1,1-1.83-1.34A1.61,1.61,0,0,1,630.1,36.55Z"/><path class="ax" d="M619.44,35.84a1.61,1.61,0,0,1-3.18.49,1.61,1.61,0,1,1,3.18-.49Z"/><polygon class="ap" points="640.24 89.78 638.7 83.39 636.9 81.57 635.87 85.64 640.24 89.78"/><polygon class="q" points="638.02 79 636.85 77.74 624.7 77.49 625.74 80.5 633.27 80.65 638.02 79"/><polygon class="ai" points="624.7 77.49 623.1 96.84 624.21 99.22 626.23 94.24 625.93 78.77 624.7 77.49"/><polygon class="ay" points="625.93 78.77 638.02 79 634.73 98.68 624.21 99.22 625.93 78.77"/><polygon class="ar" points="637 85.12 640.24 89.78 635.33 95.05 637 85.12"/><polygon class="ap" points="637 85.12 632.16 83.39 632.39 91.24 635.38 94.78 637 85.12"/><polygon class="k" points="636.31 30.71 640.56 37.45 639.74 46.23 632.26 50.24 632.67 36.94 636.31 30.71"/><polygon class="az" points="632.67 36.94 634.57 46.81 634.54 49.02 631.39 47.85 632.67 36.94"/><polygon class="ba" points="639.74 46.23 634.57 46.81 631.39 47.85 630.8 52.87 639.74 46.23"/><polygon class="ai" points="601.93 24.69 603.7 10.1 607.91 12.82 608.88 14.64 604.69 27.86 601.93 24.69"/><polygon class="q" points="603.7 10.1 633.86 13.98 631.45 18.65 608.88 14.64 603.7 10.1"/><polygon class="k" points="601.93 24.69 609.48 31.38 606.86 46.13 601.93 48.19 593.72 43.8 591.42 32.33 601.93 24.69"/><polygon class="az" points="609.48 31.38 600.77 32.12 600.23 43.84 590.44 44.31 601.78 49.22 608.58 47.16 609.48 31.38"/><polygon class="n" points="591.42 32.33 600.77 32.12 600.23 43.84 590.44 44.31 591.42 32.33"/><polygon class="ba" points="590.44 44.31 600.23 43.84 608.58 47.16 601.82 51.71 590.44 44.31"/><polygon class="ac" points="632.24 131.32 625.69 139.37 622.55 137.72 620.15 132.74 621.59 130.38 625.53 129.03 632.24 131.32"/><polygon class="bb" points="620.15 132.74 622.22 129.89 625.53 129.03 621.57 135.69 620.15 132.74"/><polygon class="ad" points="637.97 133.28 634.34 129.01 626.12 133.64 625.59 138.37 622.55 137.72 625.47 141.81 637.97 133.28"/><polygon class="aw" points="622.89 125.82 619.92 130.98 612.38 132.89 594.6 117.12 593.44 105.17 595.52 95.52 602.51 101.12 622.89 125.82"/><polygon class="i" points="600.75 102.14 621.43 127.75 619.82 129.42 597.14 103.28 600.75 102.14"/><polygon class="i" points="593.8 108.89 617.88 130.68 616.01 132.33 594.39 115.03 593.8 108.89"/><polygon class="an" points="594.03 83.18 592.55 73.57 588.03 69.16 582.06 91.77 588.5 90.43 591.91 87.8 594.03 83.18"/><polygon class="i" points="598.23 64.47 588.03 69.16 594.03 83.18 598.23 64.47"/><polygon class="ar" points="600.27 98.4 602.51 101.12 596.51 108.35 593.44 105.17 594.31 100.83 600.27 98.4"/><polygon class="am" points="582.06 91.77 591.85 106.71 600.27 98.4 591.91 87.8 582.06 91.77"/><polygon class="ah" points="622.89 125.82 612.38 132.89 615.72 136.12 625.53 129.03 622.89 125.82"/><polygon class="j" points="956.4 143.87 1016.16 113.67 1057.26 108.58 1091.21 117.13 1036.01 145 994.13 158.4 956.4 143.87"/><polygon class="bc" points="997.94 140.43 1009.25 142.39 1034.07 132.67 1042.58 117.13 997.94 140.43"/><polygon class="ay" points="1078.7 80.3 1072.7 101.13 1050.74 111.72 1059.3 86.75 1078.7 80.3"/><polygon class="bd" points="1089.76 66.37 1045.81 56.63 1026.1 64.96 1072.19 81.31 1089.76 66.37"/><polygon class="be" points="1071.43 76.28 1032.97 66.38 999.14 75.6 965.3 90.52 975.3 111 1017.94 117.13 1066.32 85.08 1071.43 76.28"/><polygon class="bf" points="1031.37 111.6 1043.47 105.6 1051.99 67.57 1035.81 57.04 1031.37 111.6"/><polygon class="bg" points="1012.19 47.43 1041.81 56.63 1031.37 111.6 1020.96 115.2 990.75 105.6 998.89 81.68 1012.19 47.43"/><polygon class="ai" points="1044.05 97.95 1053.46 91.56 1042.58 87.15 1039.29 88.69 1044.05 97.95"/><polygon class="bh" points="1024.09 78.6 1029.22 85.26 1044.05 97.95 1041.98 70.02 1024.09 78.6"/><polygon class="bi" points="998.89 81.68 996.07 81.85 988.32 95.71 993.36 104.72 1001.01 97.95 998.89 81.68"/><polygon class="bj" points="1006.01 81.29 998.89 81.68 995.1 89.61 1008.02 97.95 1024.09 97.95 1027.58 87.51 1020.26 83.88 1006.01 81.29"/><polygon class="bk" points="995.1 89.61 997.15 112.31 1008.91 113.67 1014.24 115.61 1020.96 115.2 1024.09 97.95 995.1 89.61"/><polygon class="bl" points="1008.33 83.55 1002.67 91.79 1007 95.09 1012.05 94.49 1017.94 83.21 1009.81 88.69 1008.33 83.55"/><polygon class="bm" points="1012.05 94.49 1008.91 113.67 997.15 112.31 1002.67 91.79 1012.05 94.49"/><polygon class="bn" points="1009.59 80.89 1001.17 84.99 1002.67 91.79 1009.59 80.89"/><polygon class="ai" points="1033.17 43.71 1045.02 57.04 1051.99 67.57 1024.09 77.49 1033.17 43.71"/><polygon class="ap" points="998.73 41.37 996.51 43.47 990.36 73.19 1003.73 76.86 1013.16 86.05 1018.55 83.41 1033.95 65.02 1030.51 40.75 1006.26 33.66 998.73 41.37"/><polygon class="ar" points="1009.81 88.69 1003.73 76.86 1011.65 79.01 1018.8 50.36 1022.45 46.23 1030.89 54.96 1033.24 62.7 1028.11 73.06 1026.36 74.57 1024.09 78.6 1020.26 83.88 1009.81 88.69"/><polygon class="q" points="1022.45 46.23 1009.43 43.56 1001.22 40.66 1005.92 32.57 1031.7 39.94 1027.92 45.28 1022.45 46.23"/><polygon class="aq" points="1028.11 73.06 1025.7 70.54 1024.09 78.6 1028.11 73.06"/><polygon class="ap" points="1028.11 73.06 1024.21 68.98 1025.23 67.44 1025.06 65.44 1030.54 58.89 1034.53 65.02 1028.11 73.06"/><polygon class="aq" points="1030.16 62.7 1027.92 65.64 1032.05 64.82 1030.16 62.7"/><polygon class="at" points="1022.62 71.11 1024.31 72.39 1027.01 68.79 1025.23 67.44 1022.62 71.11"/><polygon class="bo" points="999.14 63.38 1000.7 64.25 1003.31 64.25 1006.29 52.07 1002.13 51.19 999.14 63.38"/><polygon class="bp" points="999.14 63.38 1000.62 65.48 1003.31 64.25 999.14 63.38"/><polygon class="bq" points="1005.38 69.49 1000.25 69.6 996.72 67.78 999.51 67.08 1000.76 67.84 1002.14 67.56 1005.38 69.49"/><polygon class="br" points="1005.38 69.49 1000.29 71.2 996.72 67.78 1000.47 69.35 1005.38 69.49"/><polygon class="bs" points="994.1 57.89 999.72 61.03 999.99 59.76 994.1 57.89"/><polygon class="bs" points="1015.3 62.32 1003.73 62.52 1004.23 60.64 1015.3 62.32"/><polygon class="bs" points="1015.51 55.9 1007 57.04 1007.46 53.69 1009.15 51.08 1012.61 50.11 1015.86 52.25 1015.51 55.9"/><polygon class="bs" points="996.33 51.87 999.2 55.27 1001.67 51.62 1002.11 50.11 999.22 46.95 996.72 47.77 996.33 51.87"/><polygon class="ai" points="1005.92 32.57 1009.43 43.56 998.73 41.37 1005.92 32.57"/><polygon class="bt" points="1030.54 59.45 1025.23 67.44 1022.02 63.91 1027.53 54.53 1022.45 46.23 1031.7 39.94 1040.96 63.75 1036.29 65.48 1033.95 65.02 1032.34 62.4 1031.7 60.35 1030.54 59.45"/><polygon class="bh" points="1040.96 63.75 1028.11 73.06 1033.95 65.02 1040.96 63.75"/><polygon class="bt" points="1051.99 67.57 1040.96 63.75 1028.11 73.06 1024.09 78.6 1051.99 67.57"/><polygon class="q" points="1033.17 43.71 1051.99 67.57 1045.44 48.36 1033.17 43.71"/><path class="bq" d="M1001.68,53l4.18.9-1.63,6.77,11.4,2.42,1.12-4.49,13.79.88,1.8,2.95.63-4.24-15.2-3.67L991.59,49l-2.07,8.57L1000,59.76Zm4.79,6.25,1.2-5,7.84,1.65-1.24,5ZM993,51.16l6.9,1.45-1.24,5-6.86-1.44Z"/><polygon class="aq" points="1016.98 80.08 1008.29 85.72 1003.73 76.86 1016.98 80.08"/><polygon class="bu" points="1009.81 88.69 1012.05 94.49 1016.98 89.9 1020.26 83.88 1009.81 88.69"/><polygon class="bu" points="1007 83.21 1009.81 88.69 1002.67 91.79 1007 83.21"/><polygon class="bn" points="1020.26 83.88 1020.26 92.15 1012.05 94.49 1020.26 83.88"/><polygon class="bv" points="993.36 104.72 987.87 89.61 979.89 91.15 981.55 99.83 993.36 104.72"/><polygon class="bw" points="1027.58 87.51 1026.4 104.34 1016.16 108.06 1019.22 96.55 1027.58 87.51"/><circle class="bx" cx="996.67" cy="54.04" r="1.27"/><circle class="bx" cx="1009.5" cy="56.63" r="1.27"/><polygon class="by" points="1015.86 52.25 1013.73 52.16 1012.13 50.66 1009.15 51.08 1013 49.58 1015.86 52.25"/><polygon class="by" points="1002.11 50.11 1000.44 49.8 999.02 47.44 996.72 47.77 999.67 46.44 1002.11 50.11"/><polygon class="ar" points="982.99 92.37 986.62 93.54 988.2 90.52 987.12 87.51 983.87 87.51 982.99 92.37"/><polygon class="bz" points="982.77 84.05 1003.53 90.56 1000.68 94.54 984.06 89.18 982.77 84.05"/><polygon class="bz" points="998.34 99.38 998.95 105.6 1002.67 105.6 1002.95 97.16 998.34 99.38"/><polygon class="bz" points="980.84 96.08 978.43 99.13 973.96 97.4 978.3 89.62 980.84 96.08"/><polygon class="ap" points="982.77 84.05 986.31 89.91 980.84 96.08 974.17 90 982.77 84.05"/><polygon class="ap" points="1004.23 88.69 996.72 93.27 998.34 99.38 1002.11 99.38 1004.91 91.98 1004.23 88.69"/><polygon class="ar" points="1012.05 94.49 1004.23 88.69 1002.11 99.38 1007.46 100.28 1009.81 99.06 1012.05 94.49"/><polygon class="bv" points="1026.4 104.34 1012.05 94.49 1007.46 100.28 1017.44 111.6 1026.4 104.34"/><polygon class="bc" points="984.87 28.4 965.3 90.52 968.6 95.09 991.19 29.04 984.87 28.4"/><polygon class="bc" points="1028.11 41.53 1009.81 106.53 1014.32 108.06 1033.17 43.71 1034.53 38.07 1028.11 41.53"/><polygon class="bc" points="1070.14 23.96 1076.98 76.28 1071.43 76.28 1063.57 24.57 1070.14 23.96"/><polygon class="k" points="984.87 28.4 1030.64 12.32 1070.14 23.96 1033.17 43.71 984.87 28.4"/><polygon class="r" points="1014.32 108.06 1033.95 105.6 1057.7 83.88 1076.6 73.34 1089.76 66.37 1088.09 78.6 1066.64 88.69 1053.92 117.35 997.94 140.43 983.59 137.79 979.89 125.89 1014.32 108.06"/><polygon class="q" points="1014.32 108.06 1022.62 120.32 1049.4 110.75 1057.7 83.88 1014.32 108.06"/><polygon class="ai" points="1047.81 95.81 1040.28 99.64 1040.15 102.06 1046.66 99.25 1047.81 95.81"/><polygon class="ca" points="1004.47 28.4 1031.05 18.6 1051.99 25.21 1029.7 35.91 1004.47 28.4"/><polygon class="bd" points="965.3 90.52 940.3 108.23 963.15 120.32 986.62 126.64 1014.32 108.06 1002.12 106.49 998.64 102.45 975.72 94.25 970.82 95.5 965.3 90.52"/><polygon class="ai" points="940.3 108.23 941.89 121.02 983.59 137.79 986.62 126.64 940.3 108.23"/><polygon class="cb" points="945.55 114.83 953.98 118.28 953.6 121.85 946.19 119.04 945.55 114.83"/><polygon class="cb" points="971.66 124.82 981.75 129.1 980.6 132.67 970.8 128.46 971.66 124.82"/><polygon class="cc" points="975.72 94.25 965.3 90.52 966.24 114.83 1014.32 108.06 998.64 102.45 973.96 105.96 975.72 94.25"/><polygon class="j" points="339.5 256.1 302.73 264.14 284.48 257.33 288.44 250.89 279.63 249.17 231.52 247.53 226.65 247.53 222.71 251.15 250.26 260.9 247.25 272.94 257.09 272.24 276.31 261.82 293.23 266.22 335.64 281.92 386.47 271.49 339.5 256.1"/><polygon class="ap" points="327.88 263.11 327.1 265.97 324.36 267.08 319.67 266.13 318.02 264.52 323.2 259.31 325.74 259.22 327.88 263.11"/><polygon class="ar" points="327.48 267.08 327.88 263.11 324.36 267.08 314.94 261.82 312.15 267.08 327.48 267.08"/><polygon class="ap" points="349.8 266.22 352.39 269.51 352.68 271.2 352.57 273.76 350.23 274.74 345.96 273.39 343.33 271.6 345.96 267.04 349.8 266.22"/><polygon class="ar" points="342.42 269.08 339.74 274.74 353.28 274.74 352.68 271.2 350.23 274.74 342.42 269.08"/><polygon class="aq" points="324.51 258 326.58 258.2 328.27 259.13 327.88 263.11 323.2 259.31 324.51 258"/><polygon class="aq" points="351.73 265.59 350.07 264.56 347.36 264.62 345.96 267.04 352.39 269.51 351.73 265.59"/><polygon class="cd" points="321.99 230.38 330.68 233.9 339.21 238.71 334.86 250.05 326.61 248.31 318.41 244.89 321.99 230.38"/><polygon class="ce" points="334.86 250.05 331.18 260.55 315.75 255.72 319.06 250.55 318.41 244.89 334.86 250.05"/><polygon class="cf" points="332.97 255.44 318.41 244.89 315.75 255.72 332.97 255.44"/><polygon class="cd" points="339.21 238.71 339.42 254.56 348.93 256.63 358.67 255.33 357.57 231.14 346.75 234.86 339.21 238.71"/><polygon class="ce" points="358.67 255.33 357.21 260.21 359.22 266.48 339.58 264.82 339.42 254.56 358.67 255.33"/><polygon class="cf" points="358.67 255.33 359.22 266.48 339.5 259.4 358.67 255.33"/><polygon class="al" points="330.88 188.29 327 189.59 324.85 191.64 322.03 191.25 316.73 196.65 318.25 201.59 322.13 207.34 355.82 208.19 359.85 204.79 362.91 200.62 355.34 191.16 352.46 190.78 351 189.3 346.66 187.44 339.96 192.26 330.88 188.29"/><polygon class="cg" points="321.99 230.38 339.21 238.71 357.57 231.14 355.82 208.19 352.96 204.94 350.09 203.32 327.66 202.09 325.01 203.49 322.13 207.34 321.99 230.38"/><polygon class="ce" points="368.97 199.86 387.33 202.61 393.19 218.32 384.87 231.47 368.12 237.34 351.51 233.64 353.07 217.94 364.9 215.67 368.97 199.86"/><polygon class="ar" points="373.23 207.91 375.24 209.88 378.15 211.69 374.08 218.13 369.54 214.34 371.94 210.73 373.23 207.91"/><polygon class="aq" points="370.97 215.54 372.47 211.03 378.15 211.69 373.23 207.91 369.54 214.34 370.97 215.54"/><polygon class="ap" points="372.47 211.03 378.15 211.69 379.76 217.77 377.99 218.74 372.47 211.03"/><rect class="ch" x="381.93" y="207.53" width="3.79" height="3.79" transform="translate(-48.66 145.13) rotate(-20.16)"/><rect class="ci" x="384.2" y="213.77" width="3.79" height="3.79" transform="translate(-50.67 146.28) rotate(-20.16)"/><rect class="cj" x="381.93" y="220.78" width="3.79" height="3.79" transform="translate(-53.23 145.97) rotate(-20.17)"/><rect class="ck" x="376.16" y="225.51" width="3.79" height="3.79" transform="translate(-55.21 144.24) rotate(-20.16)"/><rect class="cl" x="369.73" y="227.87" width="3.79" height="3.79" transform="translate(-56.43 142.2) rotate(-20.17)"/><rect class="cm" x="362.44" y="228.06" width="3.79" height="3.79" transform="translate(-56.94 139.69) rotate(-20.16)"/><rect class="cn" x="356" y="224.37" width="3.79" height="3.79" transform="translate(-56.06 137.22) rotate(-20.16)"/><polygon class="ap" points="355.82 208.19 364.9 215.67 367.41 205.92 362.91 200.62 355.82 208.19"/><polygon class="ap" points="309.35 202.94 316.73 196.65 322.13 207.34 316.69 209.18 311.71 207.45 309.35 202.94"/><polygon class="cd" points="322.03 191.25 322.13 207.34 327.66 202.09 327 189.59 322.03 191.25"/><polygon class="cd" points="351 189.3 350.09 203.32 355.82 208.19 355.34 191.16 351 189.3"/><rect class="co" x="331.36" y="207.57" width="15.14" height="15.43"/><polygon class="cp" points="322.07 215.72 323.78 214.48 325.49 217.61 323.21 217.23 322.05 219.97 322.07 215.72"/><polygon class="cf" points="332.02 224.89 334.48 226.88 334.1 228.87 330.88 231.23 329.65 226.22 332.02 224.89"/><polygon class="cf" points="346.49 221.39 342.52 220.07 342.9 216.85 341.01 216.09 342.14 212.97 343.18 213.35 343.09 214.86 345.55 214.67 346.49 217.04 346.85 218.98 346.49 221.39"/><polygon class="cp" points="338.73 225.93 341.19 225.27 340.63 227.92 338.83 227.64 338.73 225.93"/><polygon class="cq" points="346.49 217.04 349.71 217.51 348.2 221.39 346.49 221.39 346.49 217.04"/><polygon class="aq" points="372.47 211.03 374.08 218.13 375.72 215.54 372.47 211.03"/><polygon class="cr" points="375.72 215.54 377.99 218.74 374.08 218.13 375.72 215.54"/><polygon class="ar" points="316.69 209.18 303.51 197.81 299.14 197.57 299.88 202.72 307.28 212.22 316.69 209.18"/><polygon class="aq" points="303.51 197.81 299.88 202.72 296.55 201.55 299.2 194.69 303.51 197.81"/><polygon class="ar" points="293.58 192.74 289.44 198.7 290.36 199.99 296.21 197.57 300.69 192.26 293.58 192.74"/><polygon class="al" points="315.15 181.44 297.87 200.13 295.96 198.62 294.88 196.61 315.15 181.44"/><polygon class="cd" points="291.07 204.95 290.55 207.75 285.82 208.41 286.86 205.95 288.97 205.44 290.23 204.48 291.07 204.95"/><polygon class="cg" points="290.36 199.99 288.97 205.44 294.05 204.25 292.38 201.77 290.36 199.99"/><polygon class="cs" points="300.1 197.71 294.05 204.25 290.36 199.99 294.88 196.61 300.1 197.71"/><polygon class="ap" points="301.43 200.62 300.1 197.71 295.91 198.21 294.88 196.61 300.69 192.26 303.51 197.81 301.43 200.62"/><polygon class="cf" points="363.69 158.63 343.34 153.7 322.15 147.48 322.44 144.43 324.17 139.97 344.32 149.1 363.69 158.63"/><polygon class="ce" points="324.17 139.97 345.68 145.3 367.4 152.25 366.48 155.04 363.69 158.63 324.17 139.97"/><polygon class="ct" points="348.05 140.79 350.02 147.31 341.41 144.87 348.05 140.79"/><polygon class="ct" points="324.17 139.97 320.73 141.12 316.98 143.85 321.35 150.76 322.31 148.79 322.15 147.48 324.17 139.97"/><polygon class="cf" points="324.17 139.97 324.61 136.45 323.76 131.89 319.37 138.43 316.98 143.85 324.17 139.97"/><polygon class="cd" points="323.76 131.89 312.21 139.08 316.98 143.85 323.76 131.89"/><polygon class="cg" points="324.17 139.97 323.76 131.89 323.52 127.44 331.89 136.24 331.69 142.1 324.17 139.97"/><polygon class="cd" points="326.16 130.46 335.64 124.21 337.29 128.5 337.91 131.89 334.55 134.8 331.36 136.41 326.16 130.46"/><polygon class="cf" points="331.36 136.41 337.91 131.89 339.95 136.99 341.41 144.87 331.69 142.1 331.36 136.41"/><polygon class="cf" points="335.64 124.21 348.9 131.24 341.65 132.03 337.91 131.89 335.64 124.21"/><polygon class="cd" points="337.91 131.89 348.9 131.24 346.57 136.49 341.41 144.87 337.91 131.89"/><polygon class="ct" points="369.35 161.32 361.01 163.17 362.31 160.24 363.69 158.63 366.45 159.3 369.35 161.32"/><polygon class="cf" points="341.41 144.87 347.7 141.41 351.62 139.73 353.99 137.95 353 134.11 351.41 131.04 350.43 128.41 348.9 131.24 341.41 144.87"/><polygon class="cd" points="353.99 137.95 357.61 136.8 361.22 133.95 361.99 130.19 351.41 131.04 353.99 137.95"/><polygon class="cg" points="353.99 137.95 361.22 133.95 364.86 138.79 362.42 143.53 358.33 149.67 354.96 142.35 353.99 137.95"/><polygon class="cg" points="370.71 153.23 372.35 162.75 363.69 158.63 367.4 152.25 368.98 152.16 370.71 153.23"/><polygon class="cd" points="364.86 138.79 368.13 142.54 369.3 145.34 365.39 147.06 358.33 149.67 364.86 138.79"/><polygon class="cf" points="364.86 138.79 376.41 142.67 369.3 145.34 364.86 138.79"/><polygon class="cf" points="369.3 145.34 375.69 154.72 367.4 152.25 358.33 149.67 369.3 145.34"/><polygon class="cd" points="353.99 137.95 358.33 149.67 353.41 155.88 350.02 147.31 347.7 141.41 353.99 137.95"/><polygon class="ap" points="322.15 147.48 315.04 176.66 327.97 181.26 329.68 184.33 330.88 188.29 336.44 192.15 341.06 196.94 349.11 182.08 354.59 174.01 358.98 166.61 359.9 162.96 363.69 158.63 322.15 147.48"/><polygon class="aq" points="350.92 169.67 353.12 165.97 356.7 167.82 353.6 169.29 350.92 169.67"/><polygon class="ar" points="347.24 154.22 335.98 184.05 331.36 184.03 330.88 188.29 341.06 196.94 348.1 185.01 348.9 182.47 350.92 178.79 354.59 174.01 347.8 169.98 350.03 165.75 346.31 163.56 351.08 155.25 347.24 154.22"/><polygon class="ar" points="340.49 158.58 336.53 158.55 332.01 164.69 332.87 157.46 335.38 153.78 338.93 156.18 340.49 158.58"/><polygon class="ar" points="330.19 152.28 328.39 161.86 326.51 155.16 323.24 153.16 325.11 151.8 330.19 152.28"/><polygon class="cg" points="335.38 153.78 341.57 156.1 340.49 158.58 335.38 153.78"/><polygon class="cg" points="330.19 152.28 323.82 150.52 323.24 153.16 330.19 152.28"/><polygon class="ct" points="333.2 171.5 328.19 168.11 322.82 168.47 327.12 171.69 333.2 171.5"/><polygon class="cq" points="321.34 167.52 327.29 171.33 335.24 171.56 326.75 173.66 321.34 167.52"/><polygon class="cg" points="351.08 155.25 346.31 163.56 350.03 165.75 351.97 162.59 358.98 166.61 363.69 158.63 351.08 155.25"/><polygon class="aq" points="327.97 181.26 338.88 185.06 330.88 188.29 327.97 181.26"/><polygon class="aq" points="347.84 172.26 349.5 178.79 352.95 174.98 347.84 172.26"/><polygon class="aq" points="342.74 177.03 348.1 185.01 350.18 181.45 347.7 178.79 342.74 177.03"/><path class="ct" d="M347.16,169.6l7.43,4.41-4.41,7.44L342.74,177l4.42-7.43Zm.68,2.66-2.44,4.09,4.1,2.44,2.43-4.1Z"/><rect class="cu" x="347.69" y="170.55" width="6.63" height="2.1" transform="translate(24.19 385.7) rotate(-59.28)"/><polygon class="as" points="330.19 152.28 335.38 153.78 332.01 164.69 326.92 163.16 330.19 152.28"/><polygon class="aq" points="326.92 163.16 328.69 166.47 332.01 164.69 326.92 163.16"/><circle class="bx" cx="336.23" cy="161.6" r="1.59"/><path class="ax" d="M323.89,158a1.6,1.6,0,1,0,1.6-1.59A1.6,1.6,0,0,0,323.89,158Z"/><polygon class="cv" points="222.71 251.15 218.69 248.93 237.94 177.97 242.35 182.33 230.48 227.12 222.71 251.15"/><polygon class="cw" points="237.97 190.9 222.71 251.15 231.52 247.53 244.07 189.66 237.97 190.9"/><polygon class="cv" points="222.01 140.41 248.87 222.6 239.97 273.62 246.41 277.06 257.8 221.31 276.18 253.54 284.48 257.33 284.48 249.96 250.65 203.29 228.18 139.6 222.01 140.41"/><polygon class="cx" points="233.6 138.78 228.37 137.86 222.01 140.41 226.65 141.81 231.5 144.19 233.6 138.78"/><polygon class="cw" points="226.65 141.81 252.88 215.23 246.41 277.06 257.09 272.24 261.96 219.47 284.48 257.33 295.82 252.56 259.58 206.98 233.6 138.78 226.65 141.81"/><polygon class="cy" points="217.97 167.69 244.5 246.52 249.24 246.03 246.56 211.36 224.86 166.15 217.97 167.69"/><polygon class="cz" points="261.96 146.81 257.54 144.69 217.97 167.69 223.31 168.6 241.2 168.51 261.96 146.81"/><polygon class="da" points="223.31 168.6 261.96 146.81 286.07 218.74 249.24 246.03 223.31 168.6"/><polygon class="db" points="264.43 210 275.44 203.83 262.52 199.04 261.96 208.41 264.43 210"/><polygon class="db" points="262.52 211.78 251.6 210.91 249.24 222.4 263.28 215.29 262.52 211.78"/><polygon class="ag" points="255.82 197.82 262.52 211.78 263.19 224.89 265.54 223.84 264.43 210 257.8 197.77 256.65 195.72 255.82 197.82"/><polygon class="ai" points="241.71 175.17 249.37 171.09 252.94 177.98 258.31 171.85 265.2 178.23 261.5 185.38 268.01 191.77 262.52 199.04 256.65 195.72 255.11 203.51 246.69 201.21 247.58 193.43 241.84 195.47 237.63 187.94 243.5 182.57 241.71 175.17"/><polygon class="q" points="241.71 175.17 251.92 185.64 237.63 187.94 242.35 182.33 241.71 175.17"/><polygon class="q" points="249.37 171.09 251.92 185.64 258.31 171.85 253.33 175.3 249.37 171.09"/><polygon class="q" points="241.84 195.47 252.67 187.96 246.69 201.21 246.18 195.47 241.84 195.47"/><polygon class="q" points="255.11 203.51 253.73 188.21 262.52 199.04 257.8 197.77 255.11 203.51"/><polygon class="q" points="268.01 191.77 254.52 186.4 265.2 178.23 263.41 185 268.01 191.77"/><polygon class="n" points="248.33 186.22 248.79 182.42 254.06 181.02 257.64 184.02 256.07 191.1 251.11 191.42 248.33 186.22"/><polygon class="l" points="251.32 184.3 254.69 185.35 253.73 188.21 251.32 187.3 251.32 184.3"/><polygon class="j" points="627.16 289 631.82 287.2 632.25 290.31 647.52 287.25 657.84 297.4 663.62 294.82 673.54 297.4 706.38 290.85 702.69 286.2 717.3 275.89 748.58 279.81 757.25 286.2 748.91 294.36 760.29 303.84 812.4 293.6 802.96 287.88 788.85 271.38 811.49 264.65 809.34 260.14 759.57 242.05 715.91 235.86 684.84 244.33 662.61 274.18 651.16 276.89 640.56 268.94 618.7 272.1 605.91 278.16 604.73 283.46 627.16 289"/><polygon class="dc" points="755.35 268.82 685.83 239.4 684.2 198.23 761.85 227.59 755.35 268.82"/><polygon class="dd" points="811.39 203.74 809.01 247.67 755.35 268.82 753.81 230.02 774.3 214.32 811.39 203.74"/><polygon class="de" points="811.39 203.74 736.98 175.16 684.2 198.23 753.81 230.02 811.39 203.74"/><polygon class="df" points="766.6 235.38 767.55 254.77 798.89 242.47 799.28 218.3 766.6 235.38"/><polygon class="dg" points="695.97 213.55 743.28 235.57 745 255.49 696.55 234.52 695.97 213.55"/><polygon class="dd" points="722.03 187.53 726.17 189.28 738.79 193.41 749.47 189.49 751.03 187.13 737.47 181.25 722.03 187.53"/><polygon class="dc" points="737.47 181.25 736.93 186.68 738.24 192.24 749.47 189.49 754.45 187.13 737.47 181.25"/><polygon class="dh" points="726.17 189.28 730.35 186.18 734.18 188.37 737.01 189.06 740.15 188.53 743.71 189.33 744.39 191.95 738.79 194.63 726.17 189.28"/><polygon class="di" points="730.35 186.18 730.35 191.05 734.18 188.37 737.15 191.95 740.15 188.53 744.39 191.95 749.47 189.49 740.15 188.53 736.93 186.68 734.18 188.37 730.35 186.18"/><polygon class="dd" points="726.23 207.81 739.91 202.11 715.23 190.95 698.91 198.23 702.69 199.86 726.23 207.81"/><polygon class="dc" points="715.23 190.95 714.81 200.85 730.83 206.09 738.93 204.2 743.3 202.21 715.23 190.95"/><polygon class="aa" points="702.69 199.86 704.6 196.7 708.95 198.23 714.46 197.04 716.28 199 721.83 196.85 725.75 199 725.09 201.63 728.82 202.93 732.25 200.91 730.83 207.81 726.23 209.98 720.36 207.45 716.71 204.63 711.6 203.69 702.69 199.86"/><polygon class="dj" points="704.6 196.7 707.42 201.92 711.54 198.52 714.56 203.12 716.28 199 715.02 195.94 708.95 197.28 704.6 196.7"/><polygon class="dj" points="725.75 199 719.82 202.11 719.53 198.76 716.28 199 722.03 196.27 725.75 199"/><polygon class="dj" points="711.6 203.69 719.82 202.11 720.36 207.45 711.6 203.69"/><polygon class="dj" points="738.93 204.2 732.25 200.91 729.59 205.8 728.82 202.93 725.09 201.63 720.12 205.08 729.59 205.8 730.83 207.81 738.93 204.2"/><polygon class="dd" points="732.25 212.79 749.46 204.63 769.56 213.55 753.66 220.54 736.53 214.69 732.25 212.79"/><polygon class="dc" points="749.46 204.63 751.03 214.77 764.65 217.63 773.45 213.79 749.46 204.63"/><polygon class="b" points="739.91 214.46 740.85 210.68 750.43 210.87 753.52 215.28 761.45 214.19 760.78 219.32 753.81 222.36 742.72 217.44 739.91 214.46"/><polygon class="dk" points="736.53 214.69 740.85 210.68 744.39 213.89 750.43 210.87 754.83 214.13 761.45 214.19 764.65 217.63 760.78 219.32 757.11 216.76 753.81 222.36 750.79 214.65 742.72 217.44 736.53 214.69"/><polygon class="dd" points="745.02 197.72 761.47 189.68 771.49 195.23 757.93 201.87 749.27 199.53 745.02 197.72"/><polygon class="dc" points="761.47 189.68 760.89 197.43 767.98 198.23 775.11 194.89 761.47 189.68"/><polygon class="w" points="749.27 199.53 753.86 196.27 758.6 196.7 761.1 194.6 766.13 195.36 767.98 198.23 757.64 203.09 749.27 199.53"/><polygon class="x" points="749.27 199.53 755.91 198.84 758.6 196.7 760.89 199.38 763.89 197.72 766.6 198.88 757.64 203.09 749.27 199.53"/><polygon class="dd" points="763.66 205.51 782.32 197.43 793.3 203.34 777.46 210.39 768.32 207.57 763.66 205.51"/><polygon class="dc" points="782.32 197.43 781.89 205.38 788.26 206.89 797.21 203.09 782.32 197.43"/><polygon class="t" points="768.32 207.57 771.87 204.36 775.97 205.85 781.64 203.74 788.26 206.89 777.3 211.54 768.32 207.57"/><polygon class="s" points="771.87 204.36 772.76 209.54 775.97 205.85 780.44 205.27 777.6 207.81 782.6 209.29 783.01 205.99 788.26 206.89 782.04 202.57 776.07 205.22 771.87 204.36"/><polygon class="aa" points="815.94 162.8 811.49 264.65 806.85 264.68 809.91 170.95 812.21 158.4 815.94 162.8"/><polygon class="aa" points="748.82 192.36 753.34 279.81 758.21 279.81 753.43 188 751.32 182.53 748.82 192.36"/><polygon class="aa" points="681.58 158.06 683.91 257.79 688.51 257.79 686.15 165.68 685.64 156.49 681.58 158.06"/><polygon class="x" points="680.88 142.05 681.58 158.06 686.15 165.68 690.52 161.79 701.15 166.22 705.79 173.68 710.93 170.29 720.92 174.46 726.62 182.13 731.34 178.8 742.3 183.37 748.82 192.36 753.43 188 755.91 177.16 756.23 166.19 680.88 142.05"/><polygon class="b" points="816.77 143.09 815.94 162.8 809.91 170.95 803.84 167.68 793.08 172.02 788.5 181.1 781.25 176.78 767.99 182.13 761.48 191.95 753.43 188 752.27 170.15 778.11 149.98 816.77 143.09"/><polygon class="dl" points="690.08 145.04 690.52 161.79 696.3 169.83 701.15 166.22 701.85 147.68 690.08 145.04"/><polygon class="dl" points="710.52 151.28 710.98 170.18 715.7 178.13 720.92 174.46 721.3 155.01 710.52 151.28"/><polygon class="dl" points="729.94 158.4 731.34 178.8 736.93 186.68 742.3 183.37 741.37 163.09 729.94 158.4"/><polygon class="w" points="766.96 160.19 767.99 182.13 774.49 186.18 781.25 176.78 781.64 154.45 766.96 160.19"/><polygon class="w" points="792.79 150.6 805 145.96 803.84 167.68 799.13 175 793.08 172.02 792.79 150.6"/><polygon class="aa" points="680.88 142.05 752.27 170.15 816.77 143.09 746.86 117.6 680.88 142.05"/><polygon class="dm" points="708.86 141.05 732.96 135.62 745.91 126.72 788.66 143.87 765.02 149.3 749.82 159.4 708.86 141.05"/><polygon class="dj" points="745.91 126.72 749.82 159.4 788.66 143.87 708.86 141.05 745.91 126.72"/><polygon class="dn" points="748.58 279.81 772.01 282.6 768.32 301.77 748.91 294.36 748.58 279.81"/><polygon class="do" points="769.45 289.55 786.36 274.83 802.34 276.12 802.96 287.88 768.32 301.77 769.45 289.55"/><polygon class="dp" points="748.45 274 748.58 279.81 769.45 289.55 771.71 282.63 748.45 274"/><polygon class="dh" points="769.45 289.55 782.6 284.18 784.04 282.01 785.89 282.83 802.34 276.12 802.06 270.75 783.25 275.79 769.89 284.71 769.45 289.55"/><polygon class="dj" points="763.47 269.75 762.63 261.92 766.97 261.09 767.21 269.47 763.47 269.75"/><polygon class="di" points="748.45 274 781 263.65 802.06 270.75 769.89 284.71 748.45 274"/><polygon class="dj" points="785.89 282.83 784.73 268.22 780.57 268.33 781.65 271.38 782.6 284.18 785.89 282.83"/><polygon class="aa" points="766.61 260.14 784.73 268.22 781.65 271.38 762.63 261.92 766.61 260.14"/><polygon class="dq" points="647.52 280.06 642.45 278.91 641.56 269.66 646.41 267.17 647.52 280.06"/><polygon class="dr" points="612.51 217.85 608.57 217.58 585.8 232 590.01 235.06 603.98 229.31 612.51 217.85"/><polygon class="ds" points="604.73 283.46 609.52 279.35 611.05 268.33 605.09 269.72 604.73 283.46"/><polygon class="dr" points="604.06 266.29 629.97 273.84 641.83 267.37 647.22 257.69 622.87 247.25 615.16 250.66 604.06 266.29"/><polygon class="dt" points="612.51 217.85 589.28 232.84 604.06 266.29 610.33 259.96 612.96 252.35 618.7 251.5 622.87 247.25 612.51 217.85"/><polygon class="dq" points="629.97 273.84 604.86 265.17 589.28 232.84 585.8 232 602.2 270.26 600.04 281.8 604.73 283.46 607.34 271.69 626.22 276.8 627.16 289 632.25 290.31 631.74 278.35 629.97 273.84"/><polygon class="ds" points="647.52 280.06 651.16 276.89 647.22 257.69 629.97 273.84 632.25 290.31 636.58 286.58 635.17 277.24 645.87 269.48 647.52 280.06"/><polygon class="du" points="617.7 251.5 637.45 258.68 627.57 266.29 610.33 259.96 612.89 255.4 617.7 251.5"/><polygon class="dv" points="610.33 259.96 599.7 235.54 610.73 228.69 618.7 251.5 610.33 259.96"/><polygon class="dw" points="685.56 283.37 685.56 288.32 695.8 288.93 706.38 288.32 695.66 278.16 689.91 278.45 685.56 283.37"/><polygon class="dx" points="679.1 264.82 681.14 270.68 691.25 272.1 696.33 263.24 696.62 256.78 679.1 264.82"/><polygon class="dw" points="669.67 286.2 673.54 294.82 666.55 296.11 657.84 294.82 658.8 289.55 660.59 287.85 669.67 286.2"/><polygon class="dx" points="656.98 248.55 658.21 275.3 663.46 284.71 678.16 266.44 680.25 262.33 664.16 249.4 656.98 248.55"/><rect class="dy" x="657.84" y="294.82" width="15.7" height="2.59"/><rect class="dy" x="685.56" y="288.26" width="20.82" height="2.59"/><polygon class="dz" points="678.16 266.44 658.21 275.3 658.8 289.55 669.67 286.2 678.16 266.44"/><polygon class="dz" points="696.33 263.24 681.14 270.68 685.56 283.37 695.66 278.16 696.33 263.24"/><polygon class="ea" points="662.83 251.6 656.98 248.55 662.83 244.71 666.55 248.94 662.83 251.6"/><polygon class="eb" points="720.45 212.78 731.09 209.96 729.32 218.84 722.95 222.5 721.13 218.1 720.45 212.78"/><polygon class="bs" points="720.45 212.78 722.95 222.5 717.3 224.89 714.36 218.57 720.45 212.78"/><polygon class="eb" points="714.71 215.78 718.93 209.52 721.13 210.05 719.21 217.71 714.71 220.59 714.71 215.78"/><polygon class="di" points="697.97 206.9 707.25 217.52 707.61 224.91 700.01 226.69 692.24 224.85 697.97 206.9"/><polygon class="ec" points="714.71 215.78 717.3 224.89 698.15 236.95 700.01 226.69 707.25 217.52 714.71 215.78"/><polygon class="ec" points="661.99 209.52 658.6 211.14 654.67 218.7 659.5 236.41 668.92 247.43 697.23 238.63 700.01 226.69 697.97 206.9 661.99 209.52"/><polygon class="ed" points="677.15 216.88 687.53 217.59 684.37 211.51 679.65 211.41 661.99 209.52 669.01 222.04 677.15 216.88"/><polygon class="e" points="663.3 226.69 669.67 226.49 691.04 221 693.59 215.22 700.01 226.69 701.03 236.83 698.68 259.88 667.55 261.37 661.78 235.86 663.3 226.69"/><polygon class="g" points="658.6 211.14 669.67 226.49 661.78 235.86 652.71 213.96 658.6 211.14"/><polygon class="g" points="690.56 206.45 697.97 206.9 700.01 226.69 691.04 221 690.56 206.45"/><polygon class="eb" points="667.26 165.68 681.23 167.96 690.48 160.47 697.97 206.9 684.16 210.49 670.9 211.78 667.41 205.52 658.75 197.48 653.96 190.39 659.88 184.64 665.15 192.5 668.35 189.78 655.99 172.71 667.26 165.68"/><polygon class="bs" points="667.26 165.68 675.13 210.92 678.47 212.99 672.48 214.62 661.99 209.52 658.76 197.51 662.98 194.85 664.94 193.37 668.89 190.29 656.63 172.24 667.26 165.68"/><polygon class="bp" points="661.77 193 659.55 189.22 656.73 191.02 661.77 193"/><polygon class="bp" points="658.75 197.48 664.94 193.37 659.97 201.99 658.75 197.48"/><polygon class="bp" points="687.13 189.02 685.1 191.53 682.55 189.8 687.13 189.02"/><polygon class="bs" points="674.6 179.78 678.5 180.6 682.55 189.8 682.2 182.06 680.25 176.89 674.6 179.78"/><polygon class="bs" points="684.89 176.17 684.03 181.13 686.44 185.05 688.2 177.99 691 176.12 684.89 176.17"/><polygon class="bp" points="675.13 210.92 672.48 214.62 677.15 216.88 684.37 211.51 697.97 206.9 675.13 210.92"/><polygon class="ee" points="684.57 174.41 690.67 174.13 691 176.12 684.89 176.17 684.57 174.41"/><polygon class="ee" points="679.95 175.12 673.96 177.91 674.6 179.78 680.25 176.89 679.95 175.12"/><polygon class="bp" points="675.14 195.63 693.59 192.55 686.51 199.29 675.14 195.63"/><polygon class="ef" points="680.1 195.93 690.04 194.25 686.14 197.92 680.1 195.93"/><polygon class="ee" points="669.94 155.21 657.62 163.06 662.85 165.94 667.26 165.68 681.72 169.16 677.05 161.8 669.94 155.21"/><polygon class="eg" points="657.62 163.06 647.66 169.82 653.69 172.41 657.58 172.55 667.26 165.68 657.62 163.06"/><polygon class="ee" points="647.66 169.82 653.96 190.39 660.09 186.11 664.94 193.37 669.54 190.3 657.58 172.55 647.66 169.82"/><polygon class="ea" points="681.72 169.16 669.94 155.21 690.48 160.47 681.72 169.16"/><path class="bx" d="M687.89,178.35a1.43,1.43,0,0,0-.64,2,1.46,1.46,0,1,0,2.61-1.32A1.43,1.43,0,0,0,687.89,178.35Z"/><path class="bx" d="M677.22,180.55a1.46,1.46,0,0,0-.65,2,1.5,1.5,0,0,0,2,.66,1.49,1.49,0,0,0-1.35-2.65Z"/><polygon class="bo" points="680.25 176.89 684.89 176.17 687.13 189.02 682.55 189.8 680.25 176.89"/><polygon class="f" points="701.03 236.83 662.61 248.24 664 268.94 702.03 262.23 701.03 236.83"/><polygon class="eh" points="683.69 241.65 697.19 234.53 700.45 235.36 678.52 246.74 672.23 249.85 671.23 247.7 683.69 241.65"/><polygon class="di" points="652.71 213.96 649.98 248.94 662.38 243.45 661.78 235.86 652.71 213.96"/><polygon class="ec" points="661.78 235.86 670.03 238.96 671.21 243.32 668.82 247.89 649.98 248.94 661.78 235.86"/><polygon class="eb" points="670.03 238.96 668.82 247.89 671.23 247.7 674.76 242.76 674.57 237.81 670.03 238.96"/><polygon class="bs" points="674.57 237.81 683.69 241.65 678.52 246.74 671.23 247.7 674.57 237.81"/><polygon class="ei" points="697.19 234.53 700.16 228.22 709.35 223.82 714.36 233.25 704.21 237.53 697.19 234.53"/><polygon class="u" points="702 231.09 708.85 228.08 709.47 228.89 702.34 232 702 231.09"/><polygon class="u" points="703.2 233.34 710.24 230.28 710.86 231.24 703.63 234.25 703.2 233.34"/><polygon class="j" points="1008.93 307.46 998.8 314.92 988.11 312.42 977.21 310.81 960.49 322.24 958.76 318.53 952.63 322.24 940.7 336.12 917.96 337.66 882.21 322.84 837.91 337.82 879.09 349.41 913.44 341.31 942.39 337.76 960.49 329.14 968.34 330.86 972.98 329.45 977.62 330.86 1003 319.14 1010.27 312.42 1024.06 310.11 1008.93 307.46"/><polygon class="ej" points="1015.22 268.05 1026.42 278.14 1013.01 277.14 1015.22 268.05"/><polygon class="ek" points="1015.83 288.49 1015.22 268.05 1006.73 282.47 1009.51 286.2 1015.83 288.49"/><polygon class="ej" points="1006.73 282.47 1015.83 288.49 1004.72 293.96 1006.73 282.47"/><polygon class="ek" points="991.41 303.47 988.11 312.42 983.37 306.98 991.41 303.47"/><polygon class="el" points="988.11 312.42 980.27 312.42 983.37 306.02 988.11 312.42"/><polygon class="ac" points="1001.18 302.47 998.85 312.7 998.78 315.92 1003 319.14 1008.93 307.46 1001.18 302.47"/><polygon class="ac" points="976.48 292.14 984.8 287.45 999.55 289.49 995.43 303.47 975.73 315.1 976.48 292.14"/><polygon class="ek" points="1006.73 282.47 999.55 285.53 996.29 291.18 995.43 303.47 1008.93 307.46 1006.73 282.47"/><polygon class="ad" points="970.73 283.44 993.3 276.35 1006.73 282.47 996.29 291.18 976.48 292.14 970.73 283.44"/><polygon class="ek" points="953.5 306.21 955.96 316.85 956.56 319.98 960.49 322.24 964.03 305.03 953.5 306.21"/><polygon class="em" points="981.17 263.48 973.22 279.17 963.42 276.82 969.55 270.57 981.17 263.48"/><polygon class="em" points="944.4 256.5 948.49 276.38 953.54 269.53 944.4 256.5"/><polygon class="ek" points="964.03 272.13 969.42 264.73 981.17 263.48 967 276.38 964.03 272.13"/><polygon class="ek" points="957.19 270.92 954.1 261.44 944.4 256.5 951.77 269.96 953.54 272.96 957.19 270.92"/><polygon class="ai" points="910.22 316.55 942.68 320.86 936.54 324.56 908.5 319.14 909.24 315.4 910.22 316.55"/><polygon class="ay" points="906.36 308.45 908.5 319.14 910.22 316.55 909.68 306.21 908.07 304.39 906.36 308.45"/><polygon class="ar" points="855.75 265.99 851.21 261.44 847.94 262.64 844.63 267.19 848.58 271.3 852.49 271.3 855.75 265.99"/><polygon class="ap" points="845.21 253.55 842.04 259.38 844.63 267.19 851.21 261.44 845.21 253.55"/><polygon class="cg" points="908.07 267.51 896.55 287.32 905.78 294.15 916.01 288.49 908.07 267.51"/><polygon class="cg" points="865.93 257.3 855.37 273.72 856.9 281.17 859.67 283 866.61 281.01 867.9 267.85 865.93 257.3"/><polygon class="en" points="867.03 301.39 865.16 314.92 869.81 322.45 878.25 321.04 886.47 308.55 867.03 301.39"/><polygon class="eo" points="878.25 321.04 865.16 314.92 863.75 325.86 868.06 329.97 873.11 329.45 878.25 321.04"/><polygon class="cq" points="863.5 326.92 860.11 329.03 854.3 334.08 864.86 334.87 872.71 334.08 873.11 329.45 865.78 325.14 863.5 326.92"/><polygon class="ce" points="866.13 326.77 862.58 329.97 860.11 329.03 863.75 325.86 865.16 325.14 866.13 326.77"/><polygon class="cd" points="879.37 311.42 881.73 322.58 889.14 326.45 896.55 324.45 900.78 301.96 885.15 306.54 879.37 311.42"/><polygon class="en" points="896.55 324.45 881.73 322.58 884.8 333.22 889.72 335.7 894.45 335 896.55 324.45"/><polygon class="cq" points="884.8 333.22 881.73 340.39 889.26 341.45 895.37 340.39 894.45 335 891.2 332.92 889.59 332.5 888 332.5 884.8 333.22"/><rect class="ep" x="881.73" y="340.39" width="13.64" height="2.12" transform="translate(1777.1 682.89) rotate(-180)"/><polygon class="ce" points="891.2 334.36 890.72 337.76 886.8 337.76 888.09 333.81 889.59 333.45 891.2 334.36"/><rect class="ep" x="854.29" y="334.04" width="18.43" height="2.12" transform="translate(1727 670.21) rotate(-180)"/><polygon class="eq" points="867.03 301.39 879.37 311.42 900.78 301.96 885.93 299.9 878.86 295.53 874.52 298.79 867.03 301.39"/><polygon class="ce" points="869.25 260.39 874.52 258.05 878.13 263.01 881.04 269.96 890.62 266.7 900.11 264.61 904.54 269.53 901.04 289.03 900.11 291.9 900.78 301.96 882.8 305.03 878.86 296.04 874.03 304.01 867.03 301.39 866.61 281.01 869.25 260.39"/><polygon class="ct" points="902.96 256.72 899.38 252.97 898.84 256.4 896.67 260.02 902.96 256.72"/><polygon class="ct" points="878.33 248.8 871.23 252.53 874.52 258.05 881.04 269.96 880.69 257.85 878.33 248.8"/><polygon class="cd" points="901.04 289.03 900.11 264.61 908.07 267.51 901.04 289.03"/><polygon class="cd" points="865.93 257.3 866.61 281.01 874.52 258.05 865.93 257.3"/><rect class="er" x="889.77" y="272.27" width="1.9" height="13.79" transform="translate(475.01 1114.93) rotate(-80.96)"/><polygon class="ap" points="902.67 219.21 882.08 217.04 875.74 213.95 868.82 245.88 878.33 248.8 879.63 252.93 880.96 255.63 889.66 260.39 896.83 255.86 907.72 243.44 912.09 236.63 913.31 229.64 902.67 219.21"/><polygon class="ar" points="900.31 218.96 890.57 252.37 878.33 248.8 879.45 253.08 879.35 257.3 881.04 269.96 892.02 263.63 897.5 259.38 904.99 247.7 905.21 244.91 907.72 243.44 902.33 239.4 906.92 232.88 912.09 236.63 912.96 231.63 905.45 221.93 902.67 219.21 900.31 218.96"/><polygon class="ar" points="880.71 235.17 886.67 226.66 894.25 224.21 888.89 221.56 885.58 221.54 883.35 224.24 880.2 229.92 880.71 235.17"/><polygon class="ar" points="880.11 223.46 879.76 220.71 877.25 218.93 874.62 219.12 878.65 231.79 880.11 223.46"/><polygon class="aq" points="902.33 239.4 907.72 243.44 904.99 247.7 902.33 239.4"/><polygon class="aq" points="882.22 228.92 892.08 237.17 896.14 233.26 897.88 233.19 898.67 232.01 894.25 229.89 882.22 228.92"/><polygon class="aq" points="878.94 228.3 872.15 230.51 872.44 229.18 873.76 226.81 878.94 228.3"/><polygon class="cg" points="904.86 222.79 894.84 237.71 900.07 242.61 906.92 232.88 912.09 236.63 915.34 231.63 910.12 225.3 904.86 222.79"/><polygon class="as" points="880.11 223.46 883.35 224.24 880.71 235.17 877.46 234.38 880.11 223.46"/><polygon class="aq" points="905.12 238.87 907.23 235.24 910.33 237.38 905.12 238.87"/><polygon class="cg" points="894.25 224.21 888.25 220.12 885.58 221.54 894.25 224.21"/><polygon class="cg" points="879.76 220.71 877.19 218.02 874.62 219.12 879.76 220.71"/><polygon class="aq" points="872.32 236.13 890.58 240.55 883.66 244.05 875.74 242.22 872.32 236.13"/><polygon class="at" points="874.42 237.82 887.25 240.91 883.41 243.05 876.55 241.45 874.42 237.82"/><polygon class="aq" points="877.46 234.38 878.86 236.69 880.71 235.17 877.46 234.38"/><polygon class="ct" points="897.88 233.19 906.35 233.69 906.92 232.88 902.4 231.63 898.65 232.04 897.88 233.19"/><polygon class="aq" points="878.33 248.8 894.33 253.47 879.35 257.3 878.33 248.8"/><polygon class="cd" points="882.08 204.37 912.09 211.87 917.8 222.94 898.67 213.95 882.08 204.37"/><polygon class="cp" points="900.31 218.96 915.34 231.63 917.8 222.94 904.12 214.45 900.31 218.96"/><polygon class="cg" points="900.31 218.96 904.12 217.5 904.12 214.45 882.08 204.37 881.38 210.85 882.08 217.04 900.31 218.96"/><polygon class="cd" points="882.08 204.37 867.65 200.89 875.74 213.95 882.08 217.04 882.08 204.37"/><polygon class="es" points="895.42 227.13 911.67 231.04 912.09 236.63 906.92 232.88 894.25 231.54 894.4 229.08 895.42 227.13"/><polygon class="es" points="880.11 223.46 883.35 224.24 883.52 225.62 882.67 227.07 879.43 226.26 879.08 225.08 880.11 223.46"/><path class="ac" d="M870,221l10.12,2.42-1.17,4.84-11,1.49L870,221Zm13.36,3.2,12.07,2.89L893.08,236l-10.86-7Z"/><polygon class="cd" points="889.26 260.63 902.96 256.72 900.11 264.61 881.04 269.96 889.26 260.63"/><polygon class="cf" points="900.11 291.9 880.96 283.44 878.86 283.44 866.79 289.65 878.86 295.53 900.11 291.9"/><polygon class="cd" points="881.04 269.96 880.96 283.44 878.86 296.04 878.86 283.44 881.04 269.96"/><polygon class="cd" points="916.01 288.49 909.24 290.26 903.23 295.53 905.24 300.76 912.31 298.94 916.01 288.49"/><polygon class="eq" points="895.73 328.6 883.45 328.55 884.8 333.22 894.45 335 895.73 328.6"/><polygon class="cr" points="891.19 334.4 891.19 330.92 887.89 330.59 888.09 333.83 891.19 334.4"/><polygon class="eq" points="875.55 325.46 864.47 320.24 863.75 325.86 873.11 329.45 875.55 325.46"/><polygon class="cr" points="866.13 326.77 866.79 323.24 864.19 322.45 863.75 325.86 866.13 326.77"/><polygon class="ap" points="855.75 265.99 854.83 256.42 852.66 256.38 850.47 264.04 852.45 270.57 855.75 265.99"/><polygon class="cd" points="866.61 281.01 855.75 265.99 848.58 271.3 857.05 288.05 866.61 281.01"/><polygon class="ay" points="906.36 308.45 900.78 301.96 903.61 293.83 906.88 300.21 906.36 308.45"/><polygon class="ar" points="909.24 290.26 905.14 286.68 901.04 289.03 903.88 291.18 909.24 290.26"/><polygon class="ap" points="907.7 293.19 904.09 289.49 899.66 288.82 897.98 297.37 906.36 301.04 907.7 293.19"/><polygon class="ai" points="909.24 290.26 909.68 306.21 906.36 308.45 904.09 289.49 909.24 290.26"/><polygon class="ay" points="941.62 325.55 953.5 306.21 953.5 302.48 936.54 324.56 941.62 325.55"/><polygon class="ad" points="951.77 269.96 946.12 278.54 951.39 281.54 957.33 280.83 964.03 272.13 951.77 269.96"/><circle class="bx" cx="951.68" cy="275.38" r="1.24"/><circle class="bx" cx="956.68" cy="276.38" r="1.24"/><polygon class="ac" points="964.03 272.13 957.33 280.83 946.12 278.54 949.38 289.49 949.67 295.53 950.9 298.97 953.27 302.47 953.5 306.21 972.55 319.58 976.48 292.14 975.1 290.39 975.36 287.68 973.22 279.17 964.03 272.13"/><polygon class="ek" points="943.54 295.86 950.9 298.97 961.73 286.68 948.33 294.15 943.54 295.86"/><polygon class="ax" points="957.92 285.25 961.73 286.68 949.67 295.53 947.27 295.53 945.36 291.66 949.38 289.49 957.92 285.25"/><polygon class="q" points="949.38 289.49 947.27 295.53 943.25 300.76 938.66 294.62 942.68 288.05 946.12 287.16 949.38 289.49"/><polygon class="ai" points="938.66 294.62 947.27 295.53 945.64 305.03 939.9 303.15 938.66 294.62"/><polygon class="ad" points="946.12 278.54 949.38 289.49 942.68 288.05 941.91 285.25 940.95 287.75 934.5 285.92 938.66 277.14 942.68 279.53 946.12 278.54"/><polygon class="ej" points="938.66 277.14 941.91 285.25 946.12 278.54 938.66 277.14"/><polygon class="ek" points="976.48 292.14 970.44 318.11 972.29 325.01 972.6 327.94 977.62 330.86 980.27 312.42 976.48 292.14"/><polygon class="el" points="955.96 316.85 952.63 322.24 960.49 322.24 955.96 316.85"/><polygon class="el" points="972.29 325.01 968.34 330.86 977.62 330.86 972.29 325.01"/><polygon class="el" points="998.85 312.7 994.57 319.14 1003 319.14 998.85 312.7"/><polygon class="cw" points="976.48 292.14 958.28 306.79 955.89 304.5 953.5 306.21 950.9 298.97 955.99 301.96 975.36 287.68 976.48 292.14"/><polygon class="ca" points="953.5 306.21 955.99 301.96 958.28 306.79 953.5 306.21"/><polygon class="et" points="467.91 220.95 507.15 206.89 529.43 209.39 555.52 223.28 502.88 235.19 467.91 220.95"/><polygon class="c" points="509.9 162.3 534.91 147.18 535.84 148.93 509.34 165.97 509.9 162.3"/><polygon class="c" points="506.95 155.69 517.33 133.18 519.57 133.63 510.88 157.06 508.92 157.7 506.95 155.69"/><polygon class="v" points="503.31 153.77 490.27 135.57 488.73 136.96 504.43 162.3 503.31 153.77"/><polygon class="c" points="504.15 223.81 503.31 153.77 506.95 155.69 508.92 187.65 507.23 225.28 504.15 223.81"/><polygon class="v" points="506.95 155.69 510.88 157.06 510.04 223.12 507.23 225.28 506.95 155.69"/><polygon class="w" points="466.12 150.91 496.28 144.32 519.57 133.63 530.42 149.89 546.93 148.93 562.48 126.03 551.12 103.97 530.72 94.93 522.59 88.63 522.59 74.55 491.58 70.2 489.07 83.6 483.19 87.63 473.85 97.28 462.05 94.93 445.25 120.92 466.12 150.91"/><polygon class="x" points="445.25 120.92 477.8 135.57 497.72 121.04 519.57 115.87 534.29 123.27 539.27 133.85 560.52 128.81 548.89 150.38 528.75 153.49 517.66 138.78 506.11 137.51 496.28 149.15 465.55 155.19 445.25 120.92"/><polygon class="x" points="491.58 70.2 502.13 101.73 522.59 74.55 530.72 94.93 519.57 115.87 483.19 87.63 491.58 70.2"/><polygon class="z" points="462.05 94.93 483.19 87.63 477.8 135.57 462.05 94.93"/><polygon class="z" points="551.12 103.97 519.57 115.87 539.27 133.85 551.12 103.97"/><polygon class="z" points="519.57 115.87 502.13 101.73 477.8 135.57 519.57 115.87"/><polygon class="y" points="477.8 135.57 496.28 149.15 517.66 138.78 519.57 115.87 477.8 135.57"/><polygon class="y" points="539.27 133.85 528.75 153.49 548.89 155.38 562.48 126.03 539.27 133.85"/><polygon class="et" points="1174.38 153.82 1206.38 142.75 1245.92 151.45 1223.11 165.29 1198.96 164.24 1174.38 153.82"/><polygon class="v" points="1202.81 90.62 1187.38 82.23 1185.32 84.59 1202.63 93.73 1202.81 90.62"/><polygon class="v" points="1208.5 91.98 1234.45 77.57 1235.7 79.18 1210.22 95.42 1208.5 91.98"/><polygon class="v" points="1201.21 87.39 1188.86 56.66 1190.97 54.91 1205.63 87.6 1204.46 88.54 1201.21 87.39"/><polygon class="v" points="1210.74 86.76 1229.99 68.88 1228.93 63.5 1205.63 87.6 1208.97 89.12 1210.74 86.76"/><polygon class="v" points="1205.63 87.6 1210.74 86.76 1207.18 157.55 1204.94 158.66 1204.57 123.14 1205.63 87.6"/><polygon class="c" points="1202.49 156.91 1201.21 87.39 1205.63 87.6 1204.94 158.66 1202.49 156.91"/><polygon class="w" points="1191.03 19.21 1220.19 18.28 1218.09 31.04 1229.99 38.92 1253.19 53.73 1248.58 76.98 1234.7 84.76 1215 70.55 1192.3 82.71 1167.94 79.37 1156.56 58.15 1168.65 44.13 1183.71 32.91 1191.03 19.21"/><polygon class="x" points="1260.54 52.52 1242.41 54.91 1227.57 63.88 1189.35 48.15 1156.56 58.15 1173.66 87.88 1191.96 88.54 1207.51 73.25 1216.19 77.29 1233.37 89.01 1249.89 79.37 1260.54 52.52"/><polygon class="x" points="1220.19 18.28 1202.95 34.16 1229.99 38.92 1220.19 18.28"/><polygon class="z" points="1202.95 34.16 1189.35 48.15 1229.99 38.92 1202.95 34.16"/><polygon class="z" points="1191.03 19.21 1202.95 34.16 1168.65 44.13 1191.03 19.21"/><polygon class="z" points="1229.99 38.92 1227.57 63.88 1260.54 52.52 1229.99 38.92"/><polygon class="y" points="1189.35 48.15 1191.96 88.54 1216.19 77.29 1227.57 63.88 1189.35 48.15"/><polygon class="y" points="1233.37 89.01 1260.54 52.52 1252.66 83.86 1233.37 89.01"/><polygon class="y" points="1191.96 88.54 1156.56 58.15 1166.15 88.83 1191.96 88.54"/><polygon class="j" points="1263.61 238.42 1272.96 241.81 1277.55 240.67 1277.52 243.96 1288.49 245.97 1290.77 249.91 1328.26 264.6 1333.33 262.19 1339.05 263.25 1354.41 255.38 1368.12 262.19 1373.65 276.45 1404.52 277.83 1412.43 270.7 1391.5 259.63 1373.27 253.09 1368.09 243.62 1329.97 231.24 1306.81 228.43 1283.56 229.56 1270.4 230.63 1259.51 233.51 1259.11 236.51 1263.61 238.42"/><polygon class="eu" points="1259.11 236.51 1263.96 234.85 1265.58 225.98 1257.58 225.74 1259.11 236.51"/><polygon class="eu" points="1312.86 225.07 1305.87 219.52 1277.65 229.3 1277.52 243.96 1283.24 241.81 1284.21 234.44 1312.86 225.07"/><polygon class="ev" points="1279.2 230.02 1268.53 221.07 1254.13 218.39 1255.28 234.79 1259.11 236.51 1260.21 228.26 1273.56 234.13 1272.96 241.81 1277.52 243.96 1279.2 230.02"/><polygon class="ew" points="1254.13 218.39 1286.17 206.15 1315.37 218.79 1279.2 230.02 1254.13 218.39"/><polygon class="ex" points="1320.92 186.4 1326.28 201.05 1311.51 210.66 1310.51 194.42 1320.92 186.4"/><polygon class="ex" points="1284.73 169.01 1263.71 178.93 1270.4 184.37 1276.15 186.42 1282.52 187.04 1288.74 174.35 1284.73 169.01"/><polygon class="bh" points="1263.71 178.93 1268.84 195.94 1273.31 196.41 1277.2 194.42 1276.15 186.42 1263.71 178.93"/><polygon class="ar" points="1270.92 204.56 1265.58 201.36 1270.92 198.26 1270.92 204.56"/><polygon class="ap" points="1277.2 194.42 1278.52 200.77 1276.43 202.18 1270.92 204.56 1268.84 195.94 1277.2 194.42"/><polygon class="bh" points="1323.17 223.64 1316.47 231.96 1311.29 235.38 1306.37 235.51 1307.21 222.04 1314.83 220.31 1323.17 223.64"/><polygon class="bh" points="1308.83 221.07 1291.59 225.49 1274.56 206.61 1290.12 211.79 1308.83 221.07"/><polygon class="ey" points="1295.04 161.91 1298.69 161.55 1300.73 167.25 1298.68 169.86 1289.11 166.94 1295.04 161.91"/><polygon class="ai" points="1306.47 188.96 1314.93 183.28 1321.57 184.74 1310.22 213.99 1289.22 209.52 1276.43 202.18 1287.06 175.74 1292.71 175.55 1295.63 174.85 1306.47 188.96"/><polygon class="bh" points="1295.04 179.57 1281.84 175.74 1284.73 169.01 1295.63 174.85 1295.04 179.57"/><polygon class="ex" points="1308.48 201.05 1304.57 212.02 1287.36 206 1291.59 195.94 1296.2 190.02 1303.57 188.51 1306.57 194.04 1308.48 201.05"/><polygon class="q" points="1301.56 195.48 1302.36 198.16 1299.61 199.28 1298.39 196.4 1301.56 195.48"/><polygon class="q" points="1298.37 202.65 1295.63 203.67 1296.98 206.47 1299.38 205.38 1298.37 202.65"/><polygon class="q" points="1295.63 174.85 1291.59 195.94 1303.57 188.51 1295.63 174.85"/><polygon class="q" points="1303.57 188.51 1308.48 201.05 1316.09 183.6 1314.93 183.28 1303.57 188.51"/><polygon class="ap" points="1340.78 156.12 1337.98 164.19 1326.34 187.65 1313.39 184.67 1303.27 185.86 1297.58 175.31 1300.62 166.94 1297.15 164.77 1297.56 157.18 1304.17 156.59 1305.48 163.31 1307.77 163.37 1311.2 156.59 1311.39 146.54 1323.75 144.18 1333.18 151.93 1335.64 146.56 1340.78 156.12"/><polygon class="ar" points="1311.77 146.77 1316.11 159.92 1312.36 177.57 1313.39 184.67 1307.97 185.4 1303.57 188.51 1295.63 174.85 1298.68 169.86 1300.73 167.25 1302.68 168.16 1305.4 163.79 1307.88 163.72 1311.51 156.72 1311.77 146.77"/><polygon class="ar" points="1333.33 166.95 1328.41 163.53 1316.11 159.92 1322.7 168.99 1321.31 174.85 1327.38 169.2 1333.33 166.95"/><polygon class="aq" points="1312.36 177.57 1320.81 181.62 1327.42 182.37 1321.8 178.14 1312.36 177.57"/><polygon class="ez" points="1312.36 177.57 1321.31 174.85 1322.99 175.9 1324.97 176.19 1327.42 182.37 1312.36 177.57"/><polygon class="as" points="1325.61 163.81 1321.31 174.85 1323.27 176.56 1324.97 176.19 1328.81 165.06 1327.7 162.63 1325.61 163.81"/><polygon class="ez" points="1316.11 159.92 1333.33 166.95 1336.24 161.98 1316.11 159.92"/><polygon class="ey" points="1324.98 176.17 1322.55 176.94 1321.31 174.85 1324.98 176.17"/><polygon class="aq" points="1300.04 158.41 1302.81 158.94 1302.46 163.06 1300.04 158.41"/><polygon class="aq" points="1313.39 184.67 1306.27 181.1 1303.57 188.51 1313.39 184.67"/><polygon class="aq" points="1300.62 166.94 1302.68 168.16 1298.68 169.86 1300.62 166.94"/><polygon class="cw" points="1340.47 155.99 1343.24 152.81 1348.35 150.52 1337.98 164.19 1340.47 155.99"/><polygon class="cw" points="1311.77 146.77 1305.94 141.93 1295.63 138.94 1295.38 152.84 1304.12 155.61 1311.51 156.72 1311.77 146.77"/><polygon class="ez" points="1340.47 155.99 1335.54 147.36 1332.41 143.26 1329.56 136.9 1348.35 150.52 1340.47 155.99"/><polygon class="ez" points="1311.77 146.77 1323.68 144.58 1319.89 136.9 1310.51 132.59 1295.63 138.94 1311.77 146.77"/><polygon class="cw" points="1329.56 136.9 1317.48 128.08 1310.51 132.59 1323.68 144.58 1333.26 152.43 1335.54 147.36 1329.56 136.9"/><polygon class="ez" points="1311.51 156.72 1295.38 152.84 1295.04 161.91 1297.15 164.77 1297.78 157.37 1304.04 156.89 1305.4 163.79 1307.88 163.72 1311.51 156.72"/><circle class="bx" cx="1320.53" cy="165.97" r="1.4"/><circle class="bx" cx="1330.3" cy="169.67" r="1.4"/><polygon class="bc" points="1306.37 240 1313.32 240.67 1324.31 240 1316.47 231.96 1306.37 235.51 1306.37 240"/><rect class="dn" x="1306.36" y="240" width="17.94" height="2.23" transform="translate(2630.67 482.23) rotate(-180)"/><polygon class="ex" points="1301.42 223.4 1296.07 227.78 1287.99 227.61 1276.43 222.39 1274.56 206.61 1286.42 207.9 1288.63 212.52 1301.42 223.4"/><polygon class="bh" points="1299.25 237.43 1301.42 223.4 1287.44 227.31 1288.92 239.71 1295.61 243.62 1299.25 237.43"/><polygon class="bc" points="1299.25 237.43 1303.65 245.97 1295.2 246.69 1288.49 245.97 1288.92 239.71 1299.25 237.43"/><rect class="dn" x="1288.49" y="245.97" width="15.16" height="2.23" transform="translate(2592.15 494.18) rotate(-180)"/><polygon class="fa" points="1276.41 202.18 1290.69 207.17 1295.08 209.68 1300.31 210.53 1310.22 213.99 1308.83 221.07 1297.92 216.42 1292.39 213.61 1288.63 212.52 1274.56 206.61 1276.41 202.18"/><path class="q" d="M1290.7,207.16l-2.08,5.36,9.3,3.9,2.39-5.89Zm5.5,6.85-4.9-1.8.93-2.57,5.28,1.76Z"/><polygon class="p" points="1371.83 244.59 1365.9 243.05 1366.66 223.4 1373.27 224.24 1371.83 244.59"/><polygon class="fb" points="1377 224.4 1375.66 242.68 1371.83 244.59 1371.07 224.24 1377 224.4"/><polygon class="fb" points="1333.68 266.32 1339.05 263.25 1342.1 241.11 1332.92 244.46 1333.68 266.32"/><polygon class="p" points="1335.83 248.22 1333.68 266.32 1328.26 264.6 1328.63 241.59 1335.83 248.22"/><polygon class="fb" points="1290.77 249.91 1294.07 248.22 1296.07 225.49 1291.77 226.92 1290.12 234.26 1290.77 249.91"/><polygon class="p" points="1287.44 227.31 1286.17 248.22 1290.77 249.91 1291.77 226.92 1287.44 227.31"/><polygon class="bg" points="1377.58 217.11 1377 224.4 1335.83 248.22 1335.16 238.43 1377.58 217.11"/><polygon class="bz" points="1287.44 220.3 1287.44 227.31 1335.83 248.22 1336.34 239.68 1304.91 225.74 1287.44 220.3"/><polygon class="o" points="1287.44 220.3 1329.68 199.37 1377.58 217.11 1336.34 239.68 1287.44 220.3"/><polygon class="ap" points="1312.01 212.95 1306.66 215.61 1302.33 211.7 1302.36 206.07 1308.83 205.87 1314.01 206.61 1312.01 212.95"/><polygon class="bh" points="1326.28 201.05 1315.1 201.41 1308.83 205.87 1312.01 212.95 1325.06 207.16 1326.28 201.05"/><polygon class="ar" points="1302.36 206.07 1298.39 214.87 1303.09 217.06 1306.59 215.61 1302.36 206.07"/><polygon class="fc" points="1299.04 218.93 1330.24 204.56 1364.75 217.19 1334.66 233.02 1299.04 218.93"/><polygon class="bg" points="1360.25 215.55 1357.21 217.19 1361.49 218.91 1364.75 217.19 1360.25 215.55"/><polygon class="bg" points="1353.38 219.23 1357.64 220.93 1353.89 223.01 1349.58 221.27 1353.38 219.23"/><polygon class="bg" points="1345.96 223.21 1350.12 224.89 1346.25 226.92 1342.1 225.28 1345.96 223.21"/><polygon class="bg" points="1338.21 227.36 1342.25 229.03 1338.21 231.24 1334.08 229.57 1338.21 227.36"/><polygon class="bg" points="1352.95 215.55 1357.21 217.19 1353.38 219.23 1349.12 217.54 1352.95 215.55"/><polygon class="bg" points="1345.28 219.52 1349.58 221.27 1345.96 223.21 1341.56 221.45 1345.28 219.52"/><polygon class="bg" points="1337.73 223.43 1342.1 225.28 1338.21 227.36 1333.7 225.51 1337.73 223.43"/><polygon class="bg" points="1329.46 227.71 1334.08 229.57 1330.63 231.42 1325.87 229.56 1329.46 227.71"/><polygon class="bg" points="1329.46 223.77 1333.7 225.51 1329.46 227.71 1325.18 225.98 1329.46 223.77"/><polygon class="bg" points="1333.53 221.71 1337.4 219.74 1341.56 221.45 1337.73 223.43 1333.53 221.71"/><polygon class="bg" points="1341.14 217.84 1345.1 215.93 1349.12 217.54 1345.28 219.52 1341.14 217.84"/><polygon class="bg" points="1348.91 213.99 1351.78 212.44 1355.94 214.01 1352.95 215.55 1348.91 213.99"/><polygon class="bg" points="1344.42 212.26 1348.91 213.99 1345.1 215.93 1340.78 214.21 1344.42 212.26"/><polygon class="bg" points="1336.66 216.11 1341.14 217.84 1337.4 219.74 1332.92 217.97 1336.66 216.11"/><polygon class="bg" points="1329.08 219.88 1333.53 221.71 1329.46 223.77 1324.98 221.92 1329.08 219.88"/><polygon class="bg" points="1320.51 224.13 1325.18 225.98 1321.57 227.84 1316.78 225.98 1320.51 224.13"/><polygon class="bg" points="1320.75 220.18 1324.98 221.92 1320.51 224.13 1316.23 222.37 1320.75 220.18"/><polygon class="bg" points="1324.91 218.17 1328.83 216.28 1332.92 217.97 1329.08 219.88 1324.91 218.17"/><polygon class="bg" points="1332.68 214.41 1336.66 212.57 1340.78 214.21 1336.66 216.11 1332.68 214.41"/><polygon class="bg" points="1340.37 210.7 1343.23 209.31 1347.34 210.82 1344.42 212.26 1340.37 210.7"/><polygon class="bg" points="1335.99 209.01 1340.37 210.7 1336.66 212.57 1332.24 210.79 1335.99 209.01"/><polygon class="bg" points="1328.32 212.65 1332.68 214.41 1328.83 216.28 1324.57 214.55 1328.32 212.65"/><polygon class="bg" points="1320.5 216.36 1324.91 218.17 1320.75 220.18 1316.29 218.35 1320.5 216.36"/><polygon class="bg" points="1311.69 220.53 1316.23 222.37 1312.48 224.24 1307.78 222.39 1311.69 220.53"/><polygon class="bg" points="1307 218.63 1311.7 216.46 1316.29 218.35 1311.69 220.53 1307 218.63"/><polygon class="bg" points="1315.96 214.49 1319.89 212.67 1324.57 214.55 1320.5 216.36 1315.96 214.49"/><polygon class="bg" points="1323.86 210.91 1327.77 209.03 1332.24 210.79 1328.32 212.65 1323.86 210.91"/><polygon class="bg" points="1331.53 207.29 1335.99 209.01 1338.78 207.69 1334.17 206.07 1331.53 207.29"/><polygon class="bg" points="1327.6 205.77 1331.53 207.29 1327.77 209.03 1323.76 207.54 1327.6 205.77"/><polygon class="bg" points="1320.16 209.2 1323.86 210.91 1319.89 212.67 1315.96 211.13 1320.16 209.2"/><polygon class="bg" points="1312.01 212.95 1315.96 214.49 1311.7 216.46 1307.83 214.87 1312.01 212.95"/><polygon class="bg" points="1303.09 217.06 1307 218.63 1302.9 220.53 1299.04 218.93 1303.09 217.06"/><polygon class="cw" points="1335.28 214.38 1333.99 207.53 1336.95 204.63 1338.78 207.91 1337.9 214 1336.73 215.07 1335.28 214.38"/><polygon class="ez" points="1336.95 204.63 1337.55 207.98 1336.73 215.07 1338.48 214.41 1339.28 207.74 1336.95 204.63"/><polygon class="cw" points="1319.46 222.63 1317.55 218.79 1320.8 217.06 1323.39 218.91 1322.41 222.39 1320.98 223.11 1319.46 222.63"/><polygon class="ez" points="1320.8 217.06 1322.27 219.23 1320.98 223.11 1322.62 222.53 1324.03 218.6 1320.8 217.06"/><polygon class="cw" points="1326.54 221.87 1329.45 217.23 1330.74 221.6 1329.23 223.15 1326.54 221.87"/><polygon class="ez" points="1329.45 217.23 1329.23 223.15 1332.25 221.87 1329.45 217.23"/><polygon class="fd" points="1345.63 216.56 1345.57 222.41 1348.71 220.91 1345.63 216.56"/><polygon class="cw" points="1317.55 214.46 1320.26 209.85 1322.11 214.23 1320.47 215.55 1317.55 214.46"/><polygon class="ez" points="1320.26 209.85 1323.17 214.46 1320.47 215.55 1320.26 209.85"/><polygon class="ev" points="1332.64 227.74 1331.21 220.15 1334.31 217.99 1336.14 221.27 1335.26 227.35 1334.08 228.43 1332.64 227.74"/><polygon class="fd" points="1334.31 217.99 1334.9 221.34 1334.08 228.43 1335.84 227.76 1336.76 220.08 1334.31 217.99"/><polygon class="fe" points="1413.99 246.93 1389.54 272.32 1387.54 255.88 1399.22 251.64 1413.99 246.93"/><polygon class="eu" points="1363.07 252.06 1389.54 272.32 1392.19 260.53 1386.13 252.6 1363.07 252.06"/><polygon class="ai" points="1355.94 192.75 1350.12 195.05 1349.65 197.57 1357.64 195.44 1355.94 192.75"/><polygon class="ay" points="1349.65 197.57 1351.73 199.65 1357.64 197.38 1356.9 194.96 1349.65 197.57"/><polygon class="n" points="1375.95 177.57 1359.6 184.63 1352.43 191.83 1371.85 185.6 1375.95 177.57"/><polygon class="ff" points="1368.62 184 1375.95 177.57 1380.02 187.45 1371.85 195.97 1368.12 191.42 1368.62 184"/><polygon class="fg" points="1352.43 191.83 1368.62 184 1371.85 195.97 1355.83 200.45 1352.43 191.83"/><polygon class="ai" points="1391.11 200.99 1387.54 194.8 1384.82 191.83 1383.32 187.51 1373.65 184.43 1373.75 189.02 1380.81 190.68 1382.89 193.4 1383.09 196.41 1385.96 203.63 1388.56 204.56 1391.11 200.99"/><polygon class="az" points="1391.65 219.88 1413.99 213.99 1413.99 246.93 1392.19 260.53 1389.2 237.26 1391.65 219.88"/><polygon class="k" points="1367.22 213.25 1363.07 252.06 1392.19 260.53 1394.41 222.63 1383.37 215.52 1367.22 213.25"/><polygon class="fh" points="1391.11 200.99 1413.99 213.99 1394.41 222.63 1387.54 209.64 1391.11 200.99"/><polygon class="fi" points="1367.22 213.25 1391.11 200.99 1394.41 222.63 1367.22 213.25"/><polygon class="ay" points="1383.32 187.51 1380.81 190.68 1383.09 196.41 1387.54 194.8 1383.32 187.51"/><polygon class="az" points="1365.13 188.38 1366.73 187.55 1368.32 193.49 1366.73 194.19 1365.13 188.38"/><polygon class="az" points="1361.94 189.72 1363.66 189.02 1365.26 194.64 1363.73 195.15 1361.94 189.72"/><polygon class="az" points="1374.07 222.39 1386.13 225.74 1383.36 238.87 1372.8 234.23 1374.07 222.39"/><polygon class="ai" points="1346.57 215.18 1343.36 215.24 1342.96 216.96 1345.4 218.79 1346.57 215.18"/><polygon class="ay" points="1342.96 216.96 1346.57 216.36 1344.56 218.27 1342.96 216.96"/><polygon class="ai" points="1345.32 217.29 1342.25 218.3 1342.67 220.87 1345.25 222.92 1345.57 222.41 1346.02 219.88 1345.32 217.29"/><polygon class="ay" points="1344.08 219.03 1345.57 222.41 1346.91 220.08 1344.08 219.03"/><polygon class="q" points="1355.77 217.96 1346.57 215.18 1344.08 219.03 1349.58 221.27 1353.93 221.12 1355.77 217.96"/><polygon class="ay" points="1378.22 226.92 1365.3 231.2 1362.31 229.43 1361.49 225.91 1355.77 217.96 1349.58 221.27 1356.77 228.5 1361.57 231.33 1364.73 236.51 1380.81 231.96 1378.22 226.92"/><polygon class="ai" points="1365.3 231.2 1364.73 236.51 1356.77 228.5 1361.49 225.91 1365.3 231.2"/><polygon class="fh" points="1399.98 228.43 1409.08 223.43 1409.08 243.5 1399.22 249.44 1399.98 228.43"/><polygon class="eu" points="1401.96 229.81 1407 226.94 1407 229.87 1401.96 232.55 1401.96 229.81"/><polygon class="eu" points="1401.96 234.85 1407 232.04 1407.07 234.6 1401.96 237.72 1401.96 234.85"/><polygon class="ev" points="1401.96 240.28 1407 237.4 1407.32 242.13 1401.58 245.77 1401.96 240.28"/><polygon class="ev" points="1371.07 242.5 1385.37 246.69 1384.86 253.95 1370.3 249.91 1371.07 242.5"/></svg>